<?xml version="1.0" encoding="UTF-8"?>
<svg id="Layer_2" data-name="Layer 2" xmlns="http://www.w3.org/2000/svg" viewBox="0 0 456.92 641.45">
  <defs>
    <style>
      .cls-1 {
        fill: #fff;
      }
    </style>
  </defs>
  <g id="Layer_1-2" data-name="Layer 1">
    <g>
      <path class="cls-1" d="M265.92,445.59c-.03-.88-.03-.88,0,0,.02.6.03.97.04,1.15,0-.17-.02-.55-.04-1.15Z"/>
      <path class="cls-1" d="M321.01,111.58c-.19-.84-.54-1.46-.98-1.94l.09,2.25c.28-.12.62-.2.89-.31Z"/>
      <path class="cls-1" d="M322.21,113.81c-.12,0-.24.01-.36.02l.07.79c.1-.26.2-.53.29-.81Z"/>
      <path class="cls-1" d="M319.58,114.77c-.02.62-.02,1.23-.03,1.85l3.08,5.8c.03-2.18.08-4.37.21-6.58l-3.27-1.07Z"/>
      <path class="cls-1" d="M316.55,112.56l.65-.03c-.11-.1-.33-.08-.65.03Z"/>
      <path class="cls-1" d="M320.12,111.89l-.09-2.25c-.6-.66-1.37-1.05-2.2-1.33.21,1.12,1.33,2.86,2.04,3.71.07-.05.15-.09.25-.13Z"/>
      <path class="cls-1" d="M444.68,572.41v.19c0-.06,0-.12,0-.19Z"/>
      <path class="cls-1" d="M283.27,470.85c0-.05-.01-.09-.02-.15-.09-.7-.07-.51.02.15Z"/>
      <path class="cls-1" d="M130.56,122.69c-1.13,1.37-2.18,2.81-3.14,4.31-.7,2.19-1.34,4.12-1.96,5.93l5.1-10.23Z"/>
      <path class="cls-1" d="M100.84,170.96q-.03-.74,0,0h0Z"/>
      <path class="cls-1" d="M332.55,123.75c1.31,2.27,2.83,4.21,3.87,6.49.08-1.36.12-2.73.05-4.1l-7.1-22.02.59,10.34c1.03,2.72,2.03,5.63,2.6,9.29Z"/>
      <path class="cls-1" d="M204.51,14.45c-.05,0-.09,0-.14,0,.65.04.84.05.14,0Z"/>
      <path class="cls-1" d="M334.91,230.74c3.34,6.63,1,13.47,5.04,19.92l-2.94-26.58-2.16-22.23c-.58-6-1.04-11.24-.7-17.42.06-1.18-1.15-3.42-1.84-4.46-.57-5.59-1.16-11.8-.4-17.32l1.04-7.57c-.51-2.95-.06-5.6,1.33-8.05l-1.36-20.12c-.08-1.13-.21-2.16-.36-3.16-1.27-2.21-2.34-4.74-2.53-8.2l-.06-1.09c-1.76-4.66-3.54-8.85-3.13-15.7l.61-.6,1.93,5.97-.82-14.47-.9-12.02-1.75-2.14-7.31-23.99c1.74,2.17,3.28,4.48,4.3,7.07l4.93,12.59c2.54,9.48,3.11,18.58,4.01,28.6.19.48.74.88,1.79,1.22l-3.16-26.66c-.56-4.73-2.47-9.38-4.68-13.7l-6.88-13.47c-1.45-2.85-3.03-5.52-5.35-7.71l-4.83-4.55-8.87-6.98-8.82-6.93c-3.87-3.04-7.52-5.24-11.88-7.52l-10.29-5.37-6.59-5.55c-3.3-1.86-8.54-3.35-12.22-2.11l-8.51,2.86-8.22,10.63c-.98,1.27-2.45,2.71-3.67,3.57l2.68,5.97-5.15.12,4.06,4.85-1.64,12.23-5.29-1.39c-1.46-5.39,4.22-9.42,2.65-9.19l-2.17.32,1.86-15.04c.67-5.39-4.11-11.24-9.07-12.52l-8.44-2.18c-3.77-.97-7.14.16-10.78,1.42-5.49,1.91-10.88,3.65-15.84,6.93-8.95,5.93-17.73,11.87-25.33,19.43l-6.91,6.87c-5.33,5.29-10.52,11.19-12.88,18.54-.69,2.14-.3,3.94-2.35,5.68-.72.61-1.09,2.89-.68,3.77,2.89-4.29,5.18-8.11,9.29-10.83,1.87-2.75,3.87-5.25,6.9-7.42l-1.88,5.82c-3.26,1.67-3.52,3.69-4.57,6.7-1.02,2.93-4.93,5.48-7.41,7.41l.07,2.47-4.64,5.78c-.18.22-.74,1.07-.48,1.14l1.33.33c2.25-2.07,4.69-3.2,7.35-5.02l5.58-3.81,2.82,1.21c.48.21,1.24-1.68,1.73-1.94l8.14-4.38-3.97,5.63c-2.74,3.88-5.89,6.98-9.03,10.45l-8.25,9.11c3.48-.95,4.77-3.22,7.51-4.85l-4.78,6.24.71.73,7.69-5.35-6.83,7.2c-1.86,1.96-3.73,4.21-4.96,6.53l8.94-4.95,7.47-5.16-7.41,11.44c-1.99,3.07-3.39,5.63-4.12,10.15l9.1-7.91c-2.03,4.64-5.79,7.19-8.88,10.95l-4.88,5.94c-.9,1.1-.89,3.37-.01,4.75l5.92-8.03-1.58,6.88,6.75-7.92,1.36-1.87c.28-.38,1.47.06,2.14.19l1.19.51c-4.45,4.92-1.01.34-4.33,5.4-3.11,4.73-5.25,10.43-8.91,14.48-5,5.53-7.96,11.6-11.76,17.81l12.22-28.55-1.07-1.05c-8.52,9.68-13.91,20.35-19.59,31.35,2.66-8.13,4.36-12.56,6.22-17.96l-3.51,7.03c1.05-4.75,2.96-9.07,5.47-12.96.54-1.7,1.11-3.55,1.74-5.66-4.72,3.12,1.21-.86-2.37,2.9,1.01-3.91-4.59,1.2-2.92-2.18l4.8-9.69-.89-.84-3.64,4.18,3.1-14.85c.49-2.36,2.76-4.02.94-7.37l-6.41,11.98,1.22-8.76,3.53-13.16.49-5.64,3.2-9.17c.46-1.31.46-3.18-.37-4.26-2.04,4.72-3.53,8.83-6.37,12.58l-5.37,7.1,3.43-11.46c.07-.23-.37-1.84-.54-1.66-.17.18-.99.87-1.13,1.18l-6.43,14.2-12.02,25.08c-1.75,3.64-1.18,5.68-.36,7.66,1.79-7.02,4.46-13.62,8.8-19.9-1.61,7.57-4.62,14.49-8.2,21.32.74,1.82,1.31,3.9.24,7.32l-4.51,14.5-2.85,9.63-1.45-1.47c-.17-.17-.95.82-.98,1.05l-.78,8c-4,12.52-8.34,24.31-9.8,37.42-1.96,17.66-1.5,34.89-.52,52.54.63,0,1.26,0,1.89,0-.84-7.58-.83-15.15-.88-23.16-.12-20.4.69-39.11,8.75-58.73-.36,6.66-1.7,13.04-2.99,19.85-1.36,7.15-.43,14.17.27,21.36l1.5,15.37-2.48-1.68c1.43,3.11,1.72,5.19,1.55,8.24l-1.06,18.75c.79,0,1.57,0,2.36,0l-.13-6.16c0-.3.49-1.03.76-1.39l.34,7.55c.54,0,1.08,0,1.61,0,.21-2.7.79-5.83.58-9.65l-.68-12.32c-.13-2.28,1-4.13,2.55-5.31l.76-12.91,1.45-25.93.97-8.8c.55,3.7.52,7.25.34,11.26-.33,7.13-.1,14.64.82,21.75.65,5-.3,8.48-2.44,12.79-1.95,3.93-2.82,8.62-3.12,13.25l3.12-6.72-.02,9.2c0,3.69.78,8.05.31,11.72l-.22,1.68c.11,0,.21,0,.32,0,.83,0,1.66,0,2.49.01l-.53-5.72c-.41-4.49.06-8.71,1.53-13.15l1.29,11.69.52,7.19c.71,0,1.42.01,2.13.02l-.22-4.15.45-.36.64,4.53c1.73.02,3.45.05,5.18.08-.67-6.2-1.48-12.3.22-18.66l1.99,18.71c.61.01,1.22.03,1.83.05-.19-1.91-.13-3.84.15-5.86l.81,5.88c.5.01,1,.02,1.5.04l-.08-.66c.1-.1.88-.95.88-.97,0-.02.38,1.34.41,1.61v.06c.67.02,1.33.04,1.98.07l-.09-.73.69-.4.13,1.16c2.86.1,5.73.21,8.59.34l-2.87-13.13c2.98.5,5.58,1.78,8.05,4.1l-.11,8.34-.16.93c2.27.12,4.54.24,6.81.38-.74-7.75-2.16-15.08-3.47-22.97l-1.44-8.67c-.05-.3-1.55-.65-1.63-.35l-.52,2.08,3.93,19.54c-6.29-5.18-12.93-4.87-14.29-12.15l-2.1-11.22c-2.18-11.61-6.35-24.45.71-34.17l5.38,3.23c.24.04,1.42-.53,1.18-.81l-1.24-1.38-2.69-2.26c-1.42-1.19,2.3-4.44,3.58-8.6,2.81-4.29,5.51-9.45,7.55-15.5.36-1.08.69-2.14.98-3.18l-2.26,1.74c.44-5.66,1.74-10.09,3.25-15.27,1.09-3.73,1.86-7.62,3.92-11.06l7.8-13c3.11-5.19.85-1.08,4.76-5.7,3.51-4.15,7.65-6.81,12.21-9.64l9.4-5.85c5.29-3.29,10.92-5.18,17.08-6.3l12.01-2.18c1.85-.34,3.43.84,5.54,2.46.11-.45.31-2.46.37-3.6l6.43-10.18.34,4.68,3.52-8.3c.21-.49,1.44-1.53,1.77-1.88.33-.35-1.48-1.46-1.46-1.94l.27-7.46,6.28.91c.09,5.21-.44,9.44-1.39,14.23l-2.14,10.74-1.93.78c-.38.15-.34,1.4-.26,1.75,7.44-2.05,14.84-2.82,22.5-1.65,4.23.65,2.84,6.78,7.84,3.97l-2.48-.44c-.53-.09-1.07-.99-1.3-1.73l6.08.61c7.03.7,13.7,2.13,19.54,6.08-2.44-.22-4.59-.73-5.62,1.11,6.78.09,12.63,6.97,16.33,12.95,3.04,3.4,6.07,6.79,9.11,10.19l6.4,3.8-3.68-6.85c.01.13.03.25.05.39l-2.97-5.41c-1.87.1-3.69.02-5.11-.71l5.08.23c-.25-.27-.33-.39-.16-.3l-.03-.47-.02-.49v-.47s.03.47.03.47l.02.49v.47s.16.3.16.3l3.49.16c-.92-1.31-1.33-2.98-1.48-4.7-2.25-3.46-3.79-7.24-4.72-11.04l.86-.39,5.85,9.46c.88,1.43.8,4.39.53,6.67,1.93-.09,3.55.1,4.35,1.23.73.16,1.65-.02,2.65-.35l-8.61-25.35,8.91,16.85,3.06,7.1c2.09-.94,3.93-1.72,4.41-.74l.86,1.75,1.59-.08c.06-1.72-.04-3.33-.65-4.84-1.69-.48-3.08-1.15-2.86-3.62,1.47,1.14,2.34,2.35,2.86,3.62.67.19,1.39.35,2.08.59-.02-.13-.05-.26-.05-.37l.38-13.58,1.26-.1.6,15.38c.44.48.79,1.09.98,1.94-.27.11-.62.2-.89.31l.02.44c-.08-.08-.17-.19-.26-.3-.13.09-.22.19-.22.33l-.03,1.28c.73.16,1.48.21,2.24.19l-1.37-14.92c3.6,1.67,3.51,9.68,1.73,14.91,3.21-.16,6.17-1.21,5.69,1.45-1.66,9.2-.83,18.34-.81,27.77l-2.36,9.58c-.33,1.35-.53,2.19-1.9,2.91l1.1-30.63-1.31-2.46c-.08,6.67.1,13.25-.83,20.17-1.76-8.57-2.37-17.04-2.25-25.97l-1.19-2.25-2.01-.66c.02-.37.04-.73.05-1.09-.35.14-.78.36-1.28.65l2.25,4.55c.94,8.94,1.47,17.66.79,27.6-1.83-5.3-2.62-11.1-3.79-17.09l-1.2-6.18-3.56-3.13c1.54,2.27,2.51,4.53,2.38,7.78l-2.38-4.64c-.36-.7-.57-2.28-.63-3.7l-1.08-.95c-.12,0-.21-.02-.24-.1l-.05-.16-1.9-1.67c-.17.04-.34.08-.5.12.28,1.15.22,2.64-.12,3.65l-.87-3.42c-1.51.34-2.63.4-2.34-.95l2.16.26-.16-.64.4-.28-.5-.44-.61.74c-.71-.24-1.83-1.34-2.3-2.32l-1.69-.08c-.04.34-.09.66-.13.96-.33-.29-.61-.61-.86-.96-1,.08-2.04.18-3.09.25.22.22.48.47.77.76.06.05.1.1.16.15,3.72,3.57,12.6,11.54,13.1,11.4v-.15c.04.1.04.14,0,.15l1.06,11.64.97,6.37,6.79,12.67-1.46,8.14c-1.81,10.06-1.82,19.62-4.35,29.98-1.17-7.4.45-18.98,2.44-26.23.16-.57-1.32-1.82-1.5-1.79l.31-8.44c.06-1.53-.49-2.94-.73-4.52l-1.5-9.8-9.31-17.36-6.36-4.18c2.35,3.65,4.82,8.13,6.97,13.45,3.76,9.3,5.14,17.76,5.63,24.06l-.24,19.36.27,8.91c.07,2.32.63,4.06,2,6.44l-4.07,4.85c-.15.18-.42,1.19-.43,1.42-.03.35.49,1.1.73.85l1.24-1.27,1.65-1.69c.35-.36,1.48.85,2.11,1.43l2.66-3.35c7.01,5.38,4.46,9.2,3.17,15.12-1.4,6.44-4.14,12.06-9.46,15.61-.86,4.35-6.09,4.12-9.95,9.84l4.96-21.14.77-1.77c.15-.35-1.49-.1-2.17,0l-3.23,12.39-3.89,15.18-5.76,19.16-1.57,5.4c1,.1,2,.2,3,.3l2.91-9.38-.74,9.59c.48.05.96.09,1.44.14.52-4.21,1.15-8.44,1.86-12.74.31-1.88.79-5.17.6-6.79-1.26-3.5-.52-5.9,2.21-8.07,2.41-1.92,3.43-5.02,7.2-6.42l-2.71,8.42-4.34,15.28c.3,1.34.66,3.9.31,5.44l-1.2,5.24c1.42.13,2.85.26,4.27.39l2.02-10.04c.36-1.79,0-3.85-.69-5.48l10.45-22.15-2.43,10.88-2.2,5.42-3.77,21.67c1.39.12,2.78.25,4.17.36.51.04,1.02.06,1.53.07.05-4.37.25-8.74.51-13.19.33-5.54,1.31-10.67,3.75-15.3l-.59,11.78-1.59,16.67c.68-.04,1.37-.09,2.05-.17l1.56-17.44c.65.23,1.5.67,1.82.44l2.2-1.57-1.84,8.04-2.9,10.43c.64-.09,1.29-.19,1.93-.31.56-2.08,1.17-4.2,1.79-6.38l-.66,6.16c1.02-.21,2.04-.45,3.06-.7-.5-5.8.23-11.42,1.23-17.33.03-3.04-.94-6.89.22-10.26l5.16-14.95c.91,4.92-.33,8.74-.6,13.29l-1.32,21.86-1.1,6.44c.87-.24,1.74-.48,2.61-.72.58-4.44,1.27-8.88,2.14-13.38.41-2.16-.61-4.37-.53-6.36l.35-8.97c.95,2.35,2.42,5.89,2.59,7.79l-.9,13.81-.57,6.3c.57-.14,1.13-.27,1.69-.4l.42-4.28,1.66-28.2ZM334.21,211.87l-.06,2.92.06-2.92ZM146.28,111.73l2.02-3.63c.56,1.69-.25,3.08-2.02,3.63ZM88.63,196.39l1.88-13.6-.02,6.58-.37,7.29-.37,7.22c-.51-2.24-1.43-5.3-1.12-7.49ZM90.1,241.31l-.33-3.99.6-.42.33,3.99-.6.42ZM96.14,169.23l-1.08,14.27-1.94,25.34c-.13,1.67-2.02,4.8-2.76,6.56l2.42-43.19c.41-7.32,1.33-14.14,3.83-20.82,2.19,9.56-5.92,16.36-.47,17.83ZM138.02,242.05c1.17,3.04,1.26,5.05,1.21,8.26-2.06-1.63-3.9-5.18-1.21-8.26ZM124.17,246.69l-.44-5.51.63-.39.37,4.66-.56,1.24ZM124.76,239.43l-1.09-5.19c1.68,1.09,1.81,3.43,1.09,5.19ZM135.08,127.14l-9.12,21.02-9.25,25.69.52-12.82c4.29-12.29,9.95-23.43,17.85-33.89ZM113.74,151.13c.98-3.01,3.34-6.08,5.23-8.82-2.95,10.19-6.16,19.71-10.26,29.45.71-7.4,2.76-13.65,5.03-20.62ZM106.07,162.78l2.66-12.67,6.94-26.17-3.59-.96c1.01-2.61,2.23-4.92,5.43-5.82-4.02,14.7-1.35,20.34-6.28,34.54-1.43,4.13-2.93,7.75-5.16,11.09ZM124.96,103.73l-3.94,16.63,1.16,2.39c.76-.36,1.33-.69.37.77l-.37-.77c-.84.39-1.92.81-1.45-1.15l.29-1.23-1.53-3.15c1.32-4.72,2.49-9.28,5.47-13.49ZM115.72,104.24l7.43-16.18c-.56,5.1-3.11,12.43-7.43,16.18ZM117.21,88.82l8.38-11.96c-.09,2.48-.78,5.04-1.93,6.58l-8.09,10.76c.16-1.69.78-4.14,1.65-5.38ZM119.23,92.8c-1.62,4.37-3.27,7.57-5.28,11.01.04-4.73,2.15-8.41,5.28-11.01ZM120.1,103.16l-2.2,12.38-4.58,2.35,6.78-14.73ZM108.9,123.98c.85-4.12,2.32-7.62,4.5-10.99l-4.5,10.99ZM108.5,130.26l1.06-2.7c.12.23-.19,1.01-1.06,2.7ZM113.21,95.65c.33,1.05-.04,2.45-.8,3.66l.8-3.66ZM111.67,104.06c-.93,6.13-2.89,11.14-5.87,15.96.82-6.14,2.3-11.38,5.87-15.96ZM104.62,127.62l-.88-4.52c-.28-.53-.47-1.26-.45-2.32l.45,2.32c1.14,2.12,3.86.93.88,4.52ZM106.91,128.32l-3.43,11.67c-1.17-4.04.09-8.34,3.43-11.67ZM98.52,172.58l-.33-3.99.6-.42.33,3.99-.6.42ZM101.23,140.36l-1.66,13.44c-1-4.9-1.94-9.45,1.66-13.44ZM100.84,171.06s0-.06,0-.1q-.03-.74,0,0s0,.06,0,.1q.06,1.68,0,0ZM99.68,220.76l-.03-.47-.02-.49v-.47s.03.47.03.47l.02.49v.47ZM98.54,230.88c-.49-1.36-.17-2.93.95-4.38l-.95,4.38ZM98.82,225.43l.8-3.97c.84,1.37,1.1,3.03-.8,3.97ZM102.85,232.89l.06-2.92-.06,2.92ZM103.96,245.1l-.02-2.98.63,2.59-.61.39ZM103.35,226.43l-2.39-22.98c-1.03-9.92-1.29-19.6,1.81-29.65,1.22,7.17.98,13.72,1.22,20.55l.84,22.91-1.48,9.16ZM104.72,156.5l-3.51,12.39c-1.49-15.14,5.58-29.75,11.93-43.03-.16,1.68-.49,2.94-.94,4.49l-7.48,26.15ZM107.13,247.19c-.26.14-.91-1.03-.95-1.38l-.97-7.38-.13-10.92.75-.52,2.59,19.53-1.28.68ZM108.82,226.02l-1.98-19.2-1.71-31.66c3.54,5.29,2.96,10.88,3.29,16.5l1.63,28.08c.13,2.17-.24,4.36-1.22,6.29ZM111.46,179.62l-.24,19.81c-1.81-5.58-2.58-15.1.24-19.81ZM113.64,230.38l-1.47-8.63c-.56-3.3-1.75-6.41.02-10.01l1.5,10.04c.36,2.42.25,5.16-.05,8.6ZM114.1,208.78l-.56-13.36.67-.42.56,13.36-.67.42ZM113.24,185.8l-.89-.44,1.74-15.9.91-.33-1.77,16.67ZM115.2,211.83l-.02-.49v-.47s.03.47.03.47l.02.49v.47s-.03-.47-.03-.47ZM119.88,248.87v-4.43s.68,4.04.68,4.04l-.68.39ZM118.92,213.18c1.82,5.51,1.99,11.04,2.2,16.62l.63,16.81-1.03-4.08c-.94-3.73-3.14-8.26-3.23-12.19l-.64-28.22,2.08,11.07ZM132.84,158.4l-4.04,9.71-.67-.68,5.31-13.03.07,3.15c0,.19-.54.71-.68.84ZM133.38,145.36c-4.66,11.95-8.22,24.11-11.69,36.33l-3.3,4.54-2.18,9.51-.63-11.85c1.35-1.19,2.52-2.75,2.91-4.36,3.64-14.93,9.87-29.74,18.19-42.23-.52,3.03-2.22,5.29-3.3,8.06ZM326.99,93.07l.02.49v.47s-.03-.47-.03-.47l-.02-.49v-.47s.03.47.03.47ZM323.54,76.62l.02.49v.47s-.03-.47-.03-.47l-.02-.49v-.47s.03.47.03.47ZM322.75,74.15v1.08s0-1.08,0-1.08ZM321.92,72.61l.43,1.04-.33.36-.42-1.05.32-.35ZM321.19,71.39v1.08s0-1.08,0-1.08ZM320.41,65.59l-.7-1.88.55-.42.15,2.3ZM318.32,58.64l-.61.39-.03-2.98.63,2.59ZM265.33,8.52c-5.81-2.7-14.98-5.46-17.4-4.05-2.09,1.21-3.73,3.44-6.7,2.13,7.85-6.47,20.23-5.52,24.1,1.92ZM286.42,50.02l-9.14-.39c-.57-.02-1.82-1.64-1.99-2.11,4.22-.22,7.76.26,11.13,2.5ZM284.26,25.98l.98-.13c.2,1.46.03,2.07-.98.13ZM294.91,40.96l-5.91.35-.94-3.17,6.85,2.81ZM294.06,33.29l1.84-2.35,4.85,4.42-6.68-2.07ZM292.99,31.71c-.38.15-1.72.05-2.06-.17l-5.56-3.43.46-.96,6.32,2.32,1.08.87c.32.25.14,1.21-.24,1.36ZM254.9,66.6c-2.39-.43-4.31-1.57-6.63-3.23l3.66-1.9c7.89,4.23,17.08,3.47,21.91,8.24l-6.66-.91-12.28-2.2ZM265.46,72.97l-4.71.34-.41-.61,4.71-.34.41.61ZM238.11,77.33c-.97.55-3.61.2-4.62-.29l-1.7-.83c-.31-.15.96-1.67,1.3-1.69l7.39-.41c-.47,1.16-1.51,2.73-2.38,3.21ZM238.98,80.02l-1.06,1.27c-.2.24-1.08-.75-.74-.86.51-.17,1.93-.57,1.8-.41ZM248.89,52.26l-14.86-7.28c6.85-1.17,10.21,1.55,14.86,7.28ZM236.46,37.38l.03.47.02.49v.47s-.03-.47-.03-.47l-.02-.49v-.47ZM252.32,16.02c7.82,3.08,14.92,6.35,21.73,11.26,2.01,1.45,4.44,2.12,5.6,4.97l-14.12-6.39-7.18-3.99c-4.8-2.66-9.69-3.96-13.84-8.36,2.8-.42,5.29,1.52,7.8,2.51ZM243.06,10.73c1.24-1.85,2.76-3.12,4.02-3.71l3.33,4.26-7.35-.55ZM262.75,13.52l-.08.67c-.62-.4-.5-.57.08-.67ZM279.9,40.54l.49-.02h.47s-.47.03-.47.03l-.49.02h-.47s.47-.03.47-.03ZM264.76,36.42c1.49-.02,3.49.5,4.47,1.18l3.91,2.69c-3.66-.16-6.77-.77-8.39-3.87ZM269.22,45.21l-4.13-2.9c2.09-.74,4.16.75,4.13,2.9ZM262.91,44.37c-1.94-.47-3.67-1.32-5.21-2.55,2.14.12,3.66.8,5.21,2.55ZM256.54,38.59l-9.11-4.95.53-.52,8.02,2.95,6.45,3.15c-2.16,1.05-4.09.35-5.9-.63ZM259.07,36.16c1.57-.79,3.49-.2,4.39,1.75l-4.39-1.75ZM263,35.01l-.8-1.23c-.12-.18.98-.04,1.14.13l.68.73c.16.17-.89.56-1.02.36ZM260.02,27.87c4.7,1.13,8.34,3.34,11.99,6.72-4.62-1.34-8.39-3.42-11.99-6.72ZM249.23,24.79l3.5,2.2,6.53,6.91c-4.41-.21-7.68-1.08-11.48-2.56l4.53.09c.57.01.7-1.79.15-1.93-2.02-.5-5.59-1.86-7.35-3l-5.85-3.77c3.9-2.13,6.96.18,9.97,2.07ZM247.7,19.72l1.29-.63-1.29.63ZM241.87,27.27l-3.46-1.84c1.65-.88,3.04-.29,3.46,1.84ZM247.4,32.84l-.41.81c-3.31-.88-6.94-1.83-10.04-4.8,3.64.83,7.57,2.59,10.45,3.99ZM250.93,39.32l4.99,3.83c-2.65-.03-4.08-.53-6.08-2.02l-8.46-2.54c-.72-.21-1.94-1.32-2.44-1.92,4.53-.87,8.36.32,11.99,2.64ZM249.1,49.68c-.75-.07-2.2-1.88-2.7-2.66,3.46-.06,5.85.97,9.36,3.27l-6.67-.61ZM251.73,52.33l-.47.03-.49.02h-.47s.47-.03.47-.03l.49-.02h.47ZM242.28,70.8l-2.92-.06,2.92.06ZM237.05,67.06l4.98-.19-.27.84c-1.16.59-3.18.37-4.71-.65ZM242.16,68.05l.45-.91,4.14-.04c-.89,1.19-1.43,1.92-2.02,2-.74.09-2.24-.66-2.56-1.05ZM237.56,60.5l2.51-4.91,9.46,4.64c-4.17,3-8.06,1.33-11.96.26ZM238.48,42.8c-1.72-.1-1.8-.11-.17-.01.06,0,.11,0,.17.01.05,0,.09,0,.14,0,.7.04.51.03-.14,0ZM234.09,42.27l.38-.59,1.91.49-2.29.1ZM234.55,39.37l-.67,1.97-.16.53-1.1-.43c-.28-.11.11-.83.54-1.79.08-.28,1.84-.68,1.39-.28ZM239.15,49.87l-4.33.7v2.18c-1.41-.07-3.47-.09-3.74-.83-.33-.89-.32-2.49-.28-4.78l8.35,2.72ZM238.6,54.16l-2.29,5.59-3.44-4.28,5.73-1.31ZM235.62,64.29l1.76-.17c.26-.03.18.34,0,.52l-.86.93c-.28.3-1.32-1.24-.92-1.28ZM237.16,70.45c-.56.66-3.76.67-4.61-.05.66-2.43,2.66-2.14,4.61.05ZM246.78,74.89c-1.51,1.66-3.6,3.1-6.89,3.63.7-2.7,2.89-5.07,6.89-3.63ZM246.39,64.04l.47-.03.49-.02h.47s-.47.03-.47.03l-.49.02h-.47ZM248.68,67.51c.56-.36,2.16-.08,2.83.14l6.05,1.93-10.44.02c.73-1.13,1.12-1.8,1.57-2.09ZM254.83,60.6c2.86.06,5.23,1.01,7.19,2.44-3.14-.29-5.07-1.13-7.19-2.44ZM256.08,52.53l9.31,1.42c-3.71.97-6.45.41-9.31-1.42ZM255.43,47.49l17.37,5.55c-6.49,1.01-12.35-1.89-17.37-5.55ZM270.61,42.32l9.73,3.41c-3.46.72-7.99.9-9.73-3.41ZM270.48,21.09l8.83,2.23c1.31.33,2.9,2.58,2.98,3.98-4.67-1.97-7.97-3.47-11.81-6.21ZM269.18,17.66l-5.56-2.72.2-1.02c4.62.95,9.06,2.74,12.95,6.2-3.04-.11-5.05-1.22-7.58-2.46ZM240.26,13.01c2.36.97,5.51,3.71,7.47,5.45-.17.26-.55.57-.5.53l-8.17-1.21c-.83-.12-1.73-1.55-1.8-2.28-.08-.88,2.14-2.85,3-2.5ZM236.67,23.14l.94.46c-.67,1.03-.93,1.11-1.28.61-.13-.44.02-.85.34-1.07ZM237.43,32.15l4.5,1.84-4.5.77c-.48.08-1.5-.94-1.7-1.36-.2-.42,1.26-1.44,1.71-1.25ZM235.03,26.89c.55.02.76,1.7.6,1.78l-2.8-1.85,2.2.07ZM232.84,33.1c.39,2.05.08,3.64-.81,5.21-.36-2.07-.06-3.63.81-5.21ZM231.41,44.86c.39-.01.72.29.73.68.01.39-.29.72-.68.73-.39.01-.72-.29-.73-.68-.01-.39.29-.72.68-.73ZM231.39,57.35c.87.6,2.12,1.86,3.2,3.13l-3.43-.18c-.68-.04-.81-1.49.24-2.95ZM234.79,64.32l-4.27,3.08-.2-5.39,4.47,2.31ZM231,67.71c.52.67.35,2.06-.65,2.9-.39-.31-.1-1.8.65-2.9ZM224.43,11.25l.26,7.51-6.69,2.19c-2.11.69-3.83.97-5.2-.68,4.34-.7,6.34-2.02,7.16-5.48l4.47-3.54ZM176.26,81.81c-2.43,1.21-4.07,3.36-7.07,1.82-1.85.87-3.65,1.71-5.81,2.28,6.02-5.29,12.9-8.67,20.36-11.05,4.18-2.15,8.4-3.92,13.65-3.55l-21.13,10.51ZM193.23,75.96c-.94.45-2.36.51-.81-.44.66-.76,2.34-.98.81.44ZM184.73,79.86c-.94.45-2.36.51-.81-.44.66-.76,2.34-.98.81.44ZM166.6,88.26l-10.25,8.04c.2-4.47,4.36-7.83,10.25-8.04ZM154.77,87.95l3.92-6.3,1.4,1.4-5.31,4.9ZM168.57,28.41c-4.13,2.45-7.47,4.88-11.07,8.23-.62.57-2.45,1.21-3.59,1.27,5-4.38,9.63-8.71,15.19-12.14l8.6-5.3,14.68-7.79,5.31-1.52c2.64-.76,5.26-.83,7.49.43-6.9,1.2-12.96,2-18.92,5.14-6.3,3.31-11.69,8.11-17.7,11.68ZM167.34,42.01l-5.64,2.22,4.06-4.29c.28-.3,1.26-1.24,1.57-.96l1.24,1.12c.3.27-.74,1.73-1.22,1.92ZM160.98,36.33c-1.32,2.56-3.57,4.55-6.13,5.15,1.83-2.15,3.56-3.62,6.13-5.15ZM166.32,25.45l4.68-4.29c.15,1,.28,1.89.28,1.88l-4.96,2.41ZM214.5,26.92l-4.65,4.62c-1.06,1.05-4.59.46-6.3-.29l5.5-3.29c1.69-1.01,3.56-1.54,5.45-1.05ZM212.61,12.63l-.11.02c-1.45,0-1.02,0,.11-.02ZM209.96,35.15c-.54,2.02-2.17,2.74-4.25,2.25l4.25-2.25ZM177.69,39.05c.84-.51,1.92-.54,1,.8l-6.62,2.76c1.42-2.22,3.09-2.66,5.62-3.56ZM171.44,36c-.24-.25.42-.95.75-1.31.52-.57.65,2.19.24,1.94-.02-.01-.83-.46-.99-.63ZM173.67,33.79l.03.47.02.49v.47s-.03-.47-.03-.47l-.02-.49v-.47ZM178.37,34.51c2.16-3.46,5.56-5.76,9.12-6.13l-9.12,6.13ZM184,23.58l-14.99,8.24c5.28-5.87,12.53-9.69,19.82-13.46,3.77-1.95,7.64-3.15,12.22-3.72-1.17,1.04-3.09,2.51-4.16,3l-12.89,5.94ZM202.26,29.05c.45-.16,1.95-.58,1.82-.42l-1.07,1.27c-.2.24-1.02-.77-.75-.86ZM202.26,35.31l-4.44,1.23c1.19-1.2,2.65-1.69,4.44-1.23ZM196.95,28.51l-8.92,1.57,12.77-5.51c2.13-.92,4.6-1.32,7.09-.52-3.37,2.43-6.78,3.34-10.94,4.46ZM203.53,37.74l.73,1.4c-5.82,2.53-10.21,4.26-15.69,5.48,4.96-3.6,9.19-4.66,14.96-6.88ZM209.22,23.33c-.05.22-.84-.92-.95-1.19-.09-.21,1.18.12,1.13.34l-.18.85ZM210.39,24.1l-1.06,1.28c-.2.24-1.02-.78-.79-.85.69-.21,1.98-.59,1.85-.43ZM210.35,14.87l-.49.02h-.47s.47-.03.47-.03l.49-.02h.47s-.47.03-.47.03ZM207.78,10.26l2.88,1.1c-1.25.41-2.25.05-2.88-1.1ZM209.48,17.64c-4.76,3.08-9.97,4.35-15.79,4.37,3.08-2.52,6.42-3.31,10.03-3.72l5.76-.65ZM204.2,14.43c.06,0,.12,0,.17.01.05,0,.08,0,.14,0,.7.04.51.03-.14,0-1.73-.1-1.81-.11-.17-.01ZM175.56,44.23l6.37-1.89.08-.6-3.76.35c2.13-1.43,3.86-2.27,6.11-2.97l10.82-3.37c-1.16,1.55-3.13,3.19-4.54,3.49l-5.64,1.19,3.96.48-10.67,7.28-6.69,4.63-2.79-.15c-.08-4.42,2.76-7.24,6.76-8.42ZM183.68,49.64c-.94.45-2.36.51-.81-.44.66-.76,2.34-.98.81.44ZM173.98,55.66l-3.98,2.06c.86-1.21,1.79-2.03,3.98-2.06ZM186.49,57.23c2.95-1.66,6.1-2.96,9.71-2.9l-11.77,7.98c-4.31,2.92-8.95,6.27-14.83,5.79l-5.84,3.62c2.27-3.06,5.15-4.61,8.31-6.39l14.43-8.1ZM183.74,69.21l-.11.97-9.96,3.37-.46-.57,10.53-3.78ZM173.14,70.18l.47-.03.49-.02h.47s-.47.03-.47.03l-.49.02h-.47ZM179.63,68.11c1.79-1.93,3.31-2.82,6.28-1.9l-6.28,1.9ZM166.72,77.52l-5.45,2.49c.72-2.62,2.31-4.47,5.45-2.49ZM172.49,86.13l10.28-3.65-10.31,7c-2.41,1.64-6.37,2.67-9.43,3.7,2.49-2.91,5.94-5.8,9.46-7.05ZM191.05,67.4l.47-.03.49-.02h.47s-.47.03-.47.03l-.49.02h-.47ZM197.67,67.42c3.01-1.38,6.19-3.65,10.28-2.32l-10.28,2.32ZM213.33,68.01l-6.19,2.06c1.64-1.53,3.7-2.39,6.19-2.06ZM193.72,63.92c1.89-1.4,3.97-1.77,6.59-1.17-2.04.83-4.05,1.24-6.59,1.17ZM196.09,67.95l-.47.03-.49.02h-.47s.47-.03.47-.03l.49-.02h.47ZM194.49,66.64c.06,0,.12,0,.18.01.05,0,.08,0,.14,0,.7.04.51.03-.14,0-1.73-.1-1.82-.11-.18-.01ZM205.26,78.36l-13.65,5.95c2.81-3.79,9.58-9.12,13.65-5.95ZM198.11,75.12c3.9-1.88,7.34-2.93,11.9-3.8l-2.62,5.01-9.28-1.21ZM214.81,70.05c.88-.15.99,2.71.41,3.39l-1.27,1.47c-.24.28-1.18-.8-1.55-1.17l-2.96,2.85c.16-2.87,2.7-5.99,5.38-6.54ZM212.36,64.69l6.12-4.08.72-.05c-1.14,4.12-4.24,4.74-6.83,4.13ZM209.6,64.36l.73-2.68c.16-.58,2.1-.46,3.78-.21l-4.5,2.9ZM210.1,58.92l-9.69,1.35c4.06-2.73,7.22-4.33,11.95-6.22l-2.25,4.87ZM206.69,54.76l-19.27,7.73c1.62-3.25,5.13-4.03,8.03-5.97,4.94-3.3,10.18-6.69,15.93-5.71-1.21,1-3.47,3.46-4.69,3.95ZM204.67,48.21l5.01-2c-.9,1.89-2.73,2.61-5.01,2ZM178.21,55.05l12.37-7.23,8.32-4.02c4.78-2.31,10.28-2.58,16.08-3.2-.5,2.47-2.02,2.86-4.15,3.68-11.15,4.28-21.47,8.25-32.62,10.78ZM212.88,38.66l7.49-4.15c.16.03.3.05.43.07h0c.93.15.74.12,0,0-1.85,4.53-4.29,5.17-7.92,4.08ZM219.11,33.41l-7.79-1.21,4.48-4.76c.67-.71,2.98-.69,4.31-.61.62.04-.03-1.45-.89-2.41l4.58-4.26-.19,10.57-4.49,2.68ZM216.89,23.28l.47-.03.49-.02h.47s-.47.03-.47.03l-.49.02h-.47ZM213.14,13.78l.16-.9,1.94.37-2.1.53ZM219.07,11.3c.48-.1,1.57.79,1.7.99-.57.42-1.44,1.21-1.69.96l-1.61-1.63c-.33.07,1.12-.23,1.6-.33ZM205.3,1.76l10.04,2.6c3.12.81,5.87,2.36,6.93,5.43-5.04-2.91-9.74-5.55-15.42-5.02l-14.41,1.34,12.87-4.35ZM217.37,9.36c-2.6,1.64-5.06.27-7.71-.02l-8.37-.92c-1.93-.21-5.5,1.99-7.27,2.04l-8.67.27c9.35-3.53,23.16-6.46,32.02-1.37ZM177.98,17.43l5.67-4.83,6.03-.25-11.57,6.34c-1.65.9-3.94,1.5-5.21,1.39l5.09-2.65ZM170.42,19.83l.49-.02h.47s-.47.03-.47.03l-.49.02h-.47s.47-.03.47-.03ZM168.31,21.35l.49-.02h.47s-.47.03-.47.03l-.49.02h-.47s.47-.03.47-.03ZM139.5,53.45c.45-2.4,2.09-5.03,4.35-6.62-.19,2.99-1.08,4.87-4.35,6.62ZM147.26,41.09c5.12-6.69,11.3-13.38,19.28-18.04-6.03,6.41-11.79,12.18-19.28,18.04ZM144.12,65.72l-4.52,3.38-1.18-.41,8.28-8.91c.62,2.93-.65,4.5-2.57,5.93ZM149.5,62.21l-1.79-.69c2.09-2.8,4.06-5.03,7.04-7.62l-5.25,8.31ZM152.23,62.93c-.18-2.67,2.4-2.82,4.09-4.02,3.55-2.51,6.37-6.1,9.39-8.82l.98.05c-1.2,2.01-3.33,6.31-5.49,7.57l-8.97,5.22ZM156.8,71.26c4.58-3.39,8.79-6.71,13.98-9.32l-11.7,9.43-9.27,7.36c.96-3.61,3.97-5.59,6.99-7.47ZM144.3,90.31l6.34-7.38c2.44-2.25,4.98-4.1,8.61-4.72-4.36,4.86-8.54,8.82-14.94,12.1ZM145.43,102.44c.78-2.78,2.31-5.13,4.13-7.16l6.06-3.18c-2.92,4.14-5.76,7.14-10.19,10.34ZM150.57,109.72c1.6-5.12,5.46-8.93,11.38-9.8-3.25,3.58-6.93,6.77-11.38,9.8ZM158.86,98.48c1.45-4.11,5.28-4.54,8.75-5.17-2.8,2.05-5.67,3.85-8.75,5.17ZM169.31,95.4l6.4-5.82c1.4-1.27,3.43-1.84,5.37-1.3-4.09,3.29-6.9,5.79-11.76,7.12ZM188.7,82.05l.29-2.41,5.58-1.21-6.01,4.9c-2.02,1.64-4.41,2.91-6.94,3.43l7.08-4.7ZM219.58,72.01l-10.25,14.16c-7.82.61-15.4,2.14-23.38,3.97l5.64-3.29c1.62-.94,3.52-1.24,6.34-1.44.81-.21,1.25-.49-1.27-1.25l10.95-3.55-3.79,3.54c6.23-2.46,15.61-11.39,14.32-14.62-.24-.59-1.67-1.04-2.55-1.37l1.83-2.06,2.92-3.93c.28,3.51.32,7.15-.76,9.83ZM221.13,57.27l-9.4,1.16,6.64-9.04,3.65-4.47-.89,12.36ZM216.3,47.79l.47-.03.49-.02h.47s-.47.03-.47.03l-.49.02h-.47ZM222.26,43.88l-9.32,3.89c-.4.17-2.09.45-1.86.22.23-.23.74-.79,1.08-1.01l8.94-5.71c-.64-1.3-1.62-2.32-1.14-2.74l2.49-2.14-.18,7.49ZM224.2,58.11l-.02-.61v-.59s.02.59.02.59l.02.61v.59s-.02-.59-.02-.59ZM222.86,54.32l1.16-13.69,4.91,2.4c.85.42-.07,3.25-.45,4.18l-3.79,9.18c-.19.48-1.9-1.21-1.82-2.06ZM225.66,59.46l2.02-6.52c2.38,2.32,2.13,5.63-2.02,6.52ZM233.31,82.3l-2.63.53c-.38.08.11,1.13.51,2.12l-4.24.92,2.01-8.45,7.23,2.12c-.26.73-1.9,2.56-2.89,2.76ZM235.52,85.42l2.98-1.29,6.18,1.52c-3.32.56-5.67.16-9.15-.23ZM244.48,78.96c3.05-3.57,7.02-4.85,11.78-3.77.11.18-1.29,3.22-2.16,3.48-2.39.56-6.71.58-9.62.29ZM260.42,83.91l8.2.72c4.81,1.52,10.26,3.2,13.69,7.94l-16.78-4.61-13.3-3.34c2.65-2.57,5.59-2.13,8.2-.71ZM247.89,87.28l-2.16-1.98c1.38-.91,3.43-.62,4.2.49.25.55-1.6,1.89-2.04,1.49ZM264.72,89.98l-13.03-1.59c-.46-.06-1.05-1.76-.68-1.96.48-.25,1.53-.35,2.16-.18l12.04,3.21-.49.52ZM276.86,95.22l-11.54-5.15.38-.63c2.26.33,4.65.97,7.07,1.84l10.11,3.65.93,5.53-6.96-5.24ZM284.57,105.81c.15-.12,1.48-.36,1.59.05l.71,2.48-2.3-2.53ZM290.66,108.29l-5.06-11.42c3.56,2.39,3.81,7.17,5.54,10.6l-.48.83ZM288.04,90.27l.03,1.37-.03-1.37ZM289.52,96.01l.02-1.14c.01-.47-.02.9-.02,1.14ZM290.42,97.2l.02-1.14c0,.24-.03,1.61-.02,1.14ZM291.57,109.39v-.29c-.01-.31-.02-.7-.02-.82l.02.82c0,.32.01.56,0,.29ZM291.59,96.03l-.88-2.89,1.58,2.33-.7.56ZM303.03,108.3l.02.49v.47s-.03-.47-.03-.47l-.02-.49v-.47s.03.47.03.47ZM300.91,88.79c-.06-.75-.05-.71.07.89l-.07-.89ZM301.7,91.55l-.02-.49v-.47s.03.47.03.47l.02.49v.47s-.03-.47-.03-.47ZM310.23,109.41l-6.9-18.07-4.51-12.29,13.12,21.99-1.71,8.37ZM297.88,74.16l-4.64-9.19-1.24.58,8.56,22.51-.46.44c-3.73-6.93-6.84-14.18-8.86-22.07l-1.06-1.02c-.17-.16-.34-.13-.4.11l-.44,1.84,9.28,28.28c1.37,2.47,1.65,4.86.43,7.51l-12.26-20.33c-.69,2.83.23,4.89.94,7.09l-.5.29c-.34-.22-1.38-.32-1.37.13l.06,3.03c-4.82-6.71-12.15-10.63-20.9-10.75-1.71-.02-3.76-.61-5.43-1.16l8.78-2.72-.25-1.19-11.6.93c.16-.72,1.76-3.16,2.62-3.13l7.29.26,1.58-4.63,8.49.21c.22,0,1.05-.92.9-1.07l-1.17-1.16-1.56-1.55c-.34-.34,1.24-1.6,1.62-1.7l5.79,1.82c1.17-8.03-10.63-3.41-19.57-11.45l15.36-.38,2.49,1c.47.19.88-1.61.83-2.03-1.85-.57-3.22-.94-4.22-3.5l13.04.75-3.53-6.79,3.42.03,1.97.1c.52.03.17-1.4-.14-2.57,3.57-.23,7.51.12,11.36.88l.41-1.73c.11-.46-1.08-.59-1.63-.7l-2.18-.45c-.4-.08.07-1.69.48-1.65l1.84.2c.63.07,2.76.38,2.66-.23-.44-2.65-3.81-7.05-7.31-9.01l-13.15-7.35-4.77-4.04-10.9-6.26c1.93-1.05,3.68-.22,5.49.74l8.93,4.7c3.31,1.74,6.22,4.26,9.13,6.54l6.01,4.69,9.23,7.35c3.66,2.92,6.06,6.8,7.86,11.28-.76,6.59,1.28,12.37,3.36,18.18l-.59.44-6.33-15.19c-.21-.51-1.01-1.35-1.42-1.64-3.49-2.46-2.31,8.6-.42,16.56l-.24.47-6.34-11.48-5.71-.02c1.95,9.15,5.6,17.61,8.81,26.51l5.96,16.53-14.4-23.85ZM309.7,54.85c2.56,6.78,4.47,13.42,6.1,21.94-3.15-6.48-5.68-13.8-6.1-21.94ZM312.75,76.66v1.08s0-1.08,0-1.08ZM312.35,76.16l-.33.36-.42-1.05.32-.35.43,1.04ZM311.2,73.9v1.08s0-1.08,0-1.08ZM310.41,68.83l-.63-1.91.56-.41.07,2.32ZM314.32,64.07l.63,1.89-.6.42-.03-2.32ZM305.79,63.78l-.03-.47-.02-.49v-.47s.03.47.03.47l.02.49v.47ZM316.09,104.03l-8.91-23.45-7.31-20.5c3.54,3.39,4.74,7.39,6.86,11.33l10.39,19.29c.15,4.4-.27,9.37-1.03,13.33ZM318.51,80.1l-3.79-13.32.54-.41c1.55,4.39,4.42,8.8,3.25,13.73ZM318.88,66.36v1.07s0-1.07,0-1.07ZM319.3,63.31l-1.23-3.85.57-.43,1.25,3.9-.6.39ZM319.51,73.38l1.51,2.46-.7.47-.82-2.93ZM320.45,82.71c1.92,1.08,2.52,2.77,2.11,4.84-1.13-1.75-1.79-3.13-2.11-4.84ZM323.33,98.29l-2.59-9.79,3.62,3.3-1.03,6.48ZM324.87,88.1l-.75-1.77-3.48-9.59.67-.46,4.52,9.71c.18.38.38,1.24.42,1.62.04.39-1.21.84-1.37.48ZM325.37,98.66l.13-1.36c.02-.24.8-.61.91-.39l.52,1.01-.53.6c-.36.16-1.06.5-1.03.16ZM307.98,147.31l-.33-3.27.58-.42.33,3.27-.58.42ZM310.21,185.62l-.02-.49v-.47s.03.47.03.47l.02.49v.47s-.03-.47-.03-.47ZM309.67,176.85l-.23-6.66c1.55,2.12,1.63,4.44.23,6.66ZM311.07,169.02l-.02-.49v-.47s.03.47.03.47l.02.49v.47s-.03-.47-.03-.47ZM304.59,243.41l3.77-12.78c.68-2.29,2.32-4.29,4.54-5.86-2.17,6.9-4.41,12.7-8.31,18.64ZM326.59,153.74l-.05,8.11.46,19.68-.6,1.25-.93-23.23c-.08-1.95.39-4.05,1.12-5.82ZM324.9,193.27l.02.49v.47s-.03-.47-.03-.47l-.02-.49v-.47s.03.47.03.47ZM325.23,195.63l.4,7.6-.64.41-.4-7.6.64-.41ZM321.48,160.42l1.04,1.25-1.34,11.13-.22-5.56.53-6.83ZM321.19,178.88l-.58.42-.33-3.27.58-.42.33,3.27ZM320.36,143.94c.52,1.61.67,3.55-.41,5.96-.92-1.82-.7-3.78.41-5.96ZM314.23,193.08l2.99-23.74,1.52-8.88c1.04,4.85.97,9.07.44,13.79l.43,24.35c-1.54-1.92-3.26-3.72-5.37-5.52ZM317.31,249.33c-.12-2.03.18-3.61.84-5.23.17,2-.14,3.63-.84,5.23ZM318.69,243.52c-.64-1.64-.33-3.6.79-5.24l-.79,5.24ZM319.75,235.29c0,.06.01.09.02.15,0,.05.01.1.02.16.21,1.63.2,1.54-.02-.16-.09-.66-.11-.85-.02-.15ZM320.39,232.54c-.09-.66-.11-.85-.02-.15,0,.06.01.1.02.15,0,.05.01.1.02.16.21,1.62.2,1.54-.02-.16ZM321.3,231.18l-1.16-1.35,2.33-9.92.81-.39-1.97,11.66ZM314.05,236.44c-.04-1.08.09-2.53.39-3.85l3.14-13.91,1.95-10.27c.34-1.79,1.65-3.76,2.94-5.08l.05-15.9-.04-14.36.57-.42.2,14.87.51,19.22c-4.26,9.89-6.93,19.75-9.72,29.7ZM324.41,229.5l.14-6.46c.1-4.5.75-8.32,2.75-12.34l.1-5.06-.48-10.12,1.55,7.34.38,15.53-4.45,11.12ZM328.07,174.03l.2-9.53.84,21.45c-2.87-3.56-1.13-7.99-1.05-11.92ZM328.62,137.84l-.51-12.12.76-6.6.46,7.9-.71,10.81ZM332.67,202.24l.65-.41.34,4.03-.94.36-.05-3.97Z"/>
      <path class="cls-1" d="M100.05,123.57c.55-1,1.08-2,1.61-2.99-.2-.48-.4-.95-.6-1.42-.37,1.45-.71,2.92-1.01,4.41Z"/>
      <path class="cls-1" d="M122.18,122.75l-1.16-2.39-.29,1.23c-.47,1.96.61,1.55,1.45,1.15Z"/>
      <path class="cls-1" d="M335.13,160.15l2.54,24.03c2.25,11.43,2.94,22.35,3.08,33.98l.21,17.31.85,23.06c.04,1.09,1.74,2.62,2.64,2.51-.92-4.71-1.76-8.8-1.78-13.41l-.19-33.1c-.06-10.85-1.91-20.86-3.23-31.61l-2.03-16.47c-1.19-9.63-1.09-18.68.29-28.26.48-3.34-.08-5.8-1.07-7.96-.31,5.14-1.43,10.25-1.39,15.38l.09,14.53Z"/>
      <path class="cls-1" d="M316.16,567.69c0-.05-.01-.09-.02-.15-.09-.7-.07-.51.02.15Z"/>
      <path class="cls-1" d="M238.48,42.8c.66.04.85.05.14,0-.05,0-.09,0-.14,0Z"/>
      <path class="cls-1" d="M103.75,123.09l-.45-2.32c-.02,1.07.17,1.79.45,2.32Z"/>
      <path class="cls-1" d="M295.51,518.15c-.02-.11-.05-.22-.1-.3l.1.3Z"/>
      <path class="cls-1" d="M319.77,235.44c0-.05-.01-.09-.02-.15-.09-.7-.07-.51.02.15Z"/>
      <path class="cls-1" d="M85.58,222.94l.45-2.56c.09-.51-1.23-1.2-1.92-1.18v25.81c0,1.55.1,3-.07,4.56.44,0,.88,0,1.31,0l.07-8.2.16-18.42Z"/>
      <path class="cls-1" d="M320.39,232.54c0-.05-.01-.09-.02-.15-.09-.7-.07-.51.02.15Z"/>
      <path class="cls-1" d="M291.57,109.39c0,.26,0,.03,0-.29v.29Z"/>
      <polygon class="cls-1" points="305.66 127.95 307.14 127.85 301.28 124.37 301.85 125.44 305.66 127.95"/>
      <path class="cls-1" d="M318.36,114.37l1.23.4c0-.12,0-.24,0-.37l.02-.77c-.77-.17-1.51-.46-2.16-.97l.91,1.71Z"/>
      <path class="cls-1" d="M296.02,113.38c-.05-.05-.11-.1-.16-.15-.26-.22-.56-.41-.89-.61l2.62,4.89c-.23-2.17-.68-3.31-1.58-4.13Z"/>
      <path class="cls-1" d="M299.17,112.22s0-.04,0-.06c-.2,0-.4.02-.61.03l.6.03Z"/>
      <path class="cls-1" d="M305.66,127.95l-3.81-2.51,9.31,17.36-.97-6.37-1.06-11.64c-.51.14-9.38-7.83-13.1-11.4.9.83,1.35,1.97,1.58,4.13l3.68,6.85,5.86,3.48-1.48.1Z"/>
      <path class="cls-1" d="M303.78,113.87l.03-.04c-.07-.17-.18-.31-.28-.45-.18-.04-.36-.09-.51-.18l.75.66Z"/>
      <path class="cls-1" d="M330.65,268.99l-3.28,22.43-3.64,18.31-4.53,13.61,1.05-14.46-.35-1.83c-.07-.35-1.46.52-1.57.95l-2.21,9.01c1.11-13.69,1.71-27.28,4.79-41.82l2.66,22.03c1.22-4.03,2.11-7.46,2.38-11.14.55-7.35,1.19-14.51,2.12-21.67-.87.24-1.73.48-2.61.72l-.68,3.97-.81-2.26c-.17-.47-.82-.25-2.04,0-.03-.26-.04-.51-.06-.77-1.02.26-2.04.49-3.06.7l-2.71,25.3c-2.31-8.2-.79-16.25,1.59-25.08-.64.12-1.29.22-1.93.31l-1.24,4.45.39-4.34c-.68.08-1.37.13-2.05.17l-1.5,15.79c-.5-5.36-.64-10.56-.58-15.76-.51-.01-1.02-.03-1.53-.07-1.39-.12-2.78-.24-4.17-.36l-4.89,28.11c-.42-7.65-1.16-15.07.33-22.46l1.2-5.94c-1.42-.13-2.85-.26-4.27-.39l-1.8,7.87-3.51,14.08c-.08-7.54.47-14.9,1.39-22.33-.48-.05-.96-.09-1.44-.14l-1.69,21.77c-5.08,13.2-8.2,26.47-11.15,40.84-1-4.65-.71-9.5.44-14.44l7-30.07c-.08-5.4.68-10.79,2.56-16.16l.67-2.14c-1-.1-2-.2-3-.3l-5.45,18.78c-1.21,4.17-4.52,8.27-6.08,12.06,0,0-2.88,4.74-6.24,8.95-10.79,13.5-28.38,22.19-32.96,24.41-5.57,2.7-13.41,5.97-23.27,8.51-5.24-1.32-11.06-3.1-17.25-5.5-7.1-2.76-13.28-5.8-18.53-8.74l-10.77-6.51c-3.39-2.05-6.79-5.2-9.6-8.28l-5.09-5.59c-4.05-4.44-3.81-11.13-4.65-16.82l-3.47-23.48-1.67-6.85c-.09-1.85-.24-3.66-.41-5.45-2.27-.14-4.54-.26-6.81-.38l-1.71,9.76-2.61-5.41c2.74,13.57,5.49,27.07,4.89,41.28l-6.65-41.09c.01-.34-.05-2.17.3-2.05l1.59.55-.72-3.28c-2.86-.13-5.72-.24-8.59-.34l1.51,13.2.5,9.41-1.24-8.08-.67-7.67-.83-6.89c-.66-.02-1.32-.05-1.98-.07l1.33,13.31.57,9.51-1.19-6.58-1.93-16.29c-.5-.01-1-.02-1.5-.04l.94,6.81c-1.08-2.29-1.67-4.54-1.89-6.84-.61-.02-1.22-.03-1.83-.05l1.68,15.84.05,11.51c-2.4-7.54-2.92-15.31-3.58-23.63-.1-1.27-.23-2.53-.37-3.78-1.73-.04-3.45-.06-5.18-.08l.98,6.95,1.05,10.37-.64.4c-.94-2.83-1.64-6.06-1.81-9.26l-.45-8.47c-.71,0-1.42-.01-2.13-.02l.93,12.98,2.05,19.86c1.61.75,2.66,2.09,2.75,3.42l.68,11.11-6.77-20.26c-2.26-6.76-1.27-14.22-1.92-21.34l-.53-5.77c-.83,0-1.66-.01-2.49-.01-.11,0-.21,0-.32,0l-1.58,12.36-1.29-5.54c-1.58-2.02-1.74-4.22-1.55-6.82-.54,0-1.08,0-1.61,0l.37,8.29c-1.48,1.11-1.85.03-1.2-1.33l-.14-6.97c-.79,0-1.57,0-2.36,0l-.57,10.06c-.76-.46-1.7-2.19-1.69-3.21l.06-6.85c-.44,0-.88,0-1.31,0-.11.98-.32,1.99-.74,3.1-.15-1.03-.28-2.07-.39-3.1-.63,0-1.26,0-1.89,0,.04.65.07,1.29.11,1.94l2.66,7.91c-1.11,10.24-1.33,19.53-.19,29.64l.21,8.42,1.17-.16.93-10.93,2.59-19.15.04,8.66-.47,15.92c-.07,2.51.6,3.51,1.75,5.77,1,1.97.82,5.79,1.18,8.52,2.71-1.62-1.59-6,3.11-9.73,1.43,4.43.71,8.16,3.46,12.51l1.02-16.58,2.74,20.18c.28.28,1.87.49,1.84.03l-.16-2.46c-.59-9.14-1.36-17.52-.61-27.3l7.43,22.61c.49,1.5.33,3.41,2.31,3.49l-1.73-21.12.69-6.96,3.31,7.28,3.97,21.88c.13.71,1.31,1.83,1.64,1.41.24-.31.57-1.64.5-2.06l-2.06-12.36,7.94,14.58c2.23-8.01.21-14.85-.35-22.28l-1.38-18.19c-.15-1.98.39-4.19,1.08-5.87l1.67,11.38,2.9,22.74,1.89.02-1.37-11.52.87-.67,2.53,17.66c.07.49,1.24,1.68,1.71,1.81.46.13,1.28-1.17,1.28-1.7l-.08-15c1.96,4.2-.32,9,4.18,12.1l-1.1-11.8-1.91-15.92-.37-8.05c1.97,7.06,2.73,13.85,3.79,21.42l1.38,9.86c.06.4.83,1.34,1.07,1.61.25.27,1.01-1.22.99-1.67l-.48-11.39c2.19,6,.47,13.33,5,18.35l5.73,6.35c3.83,4.02,7.46,7.07,10.39,9.29,3.36,2.55,9.66,6.93,18.34,10.65.8.34,1.47.61,1.91.79,8.94,3.06,17.88,6.11,26.81,9.17,10.73-3.37,19.34-7.18,25.61-10.28,5.75-2.85,11.14-5.55,17.45-10.11,8.82-6.36,15.07-13.18,19.23-18.47l-5.73,18.58c-.49-3.23.96-7.2,1.91-9.62.18-.46-.37-2.36-.72-2.05l-1.38,1.26-4.2,26.95c.49.18,1.67.57,1.86.23.19-.34.6-1.36.67-1.77l.93-5.37,3.66-9.23,5.83-11.99-.93,19.8c-.75,1.6-2.36,4.39-2.48,6.34l-.99,16.67-.55,8.59c-.15,2.35-2.29,5.62-3.21,7.66l-1.45-5.29c-.82.71-1.99,2.25-1.98,3.01l.44,21.97-.05,12.99-.57.43-1.37-38.21-1.6-9.65c-.69-.89-1.73-2.61-1.57-3.69l1.11-7.61c.11-.76.34-2.63-.25-2.94l-2.57-1.36c-.05-1.85-.24-3.99-.96-5.69l-2.2,10.8c-.67,3.3-1.89,6.28-1.53,9.9l1.61-7.57-.29,23.89-1.2,20.81-.97,26.8.29,15.79.03,15.65.99,11.89c.63,7.54,2.5,14.32,4.16,21.66l4.92,21.74,5.53,14.17c1.08,2.77,1.6,5.44,2.96,7.97,2.32,4.33,2.64,9.33,6.96,13.09l-4.39-10.75c-.72-1.77-.81-4.08-.37-5.55l4.4,9.88.31-5.02,4.19,9.64c.51,1.17,2.52,2.83,3.5,3.71l4.39,11.05c1.91-.79,1.92-2.86,1.36-4.38l-5.92-16.08c-2.04-5.53-1.69-11.51-1.62-17.92l5.42,14.01,2.4,6.14c1.22,3.12,1.74,6.61,4.98,8.86l-6.25-16.45-7.01-18.64c-1.15,2.76-.96,3.88-1.49,6.96l-1.54-3.69-4.93-19.43c-.74-2.91-1.58-5.46-1.3-8.11,2.35,6.68,4.03,12.24,7.41,18.53l1.24-3.83,5.24,18.05.92-7.4,3.24,12.57c.86-.63,1.2-1.69,1.08-2.34l-.1-.3c.05.08.08.19.1.3,1.7,5.08,3.41,10.16,5.11,15.25-1.07.85-1.48,2.09-1.25,3.42,1.43,8.26,4.32,15.39,8.48,22.59l1.04,5.85c.78,4.37,2.62,7.66,4.85,11.32,4.14,6.81,8.95,12.68,14.95,17.77l17.84,15.16c4.78,4.06,9.11,7.38,14.88,10.31l8.38,4.27c5.12,2.61,9.7,5.05,15.05,7.12,3.22,1.25,6.53,2.98,10.12,3.14l17.05.71-5.4,4.44c-.28.23.05,2.03.39,1.93l2.03-.57,12.35-4.76,10.21-3.82,10.02-5.84c1.72-1,3.39-.86,5.04-.15,8.04-4.53,9.49-7.74,9.63-15.81l.11-6.59c.21-11.83,1.5-23.57-.97-35.14l-1.55-7.27c-2.39-11.2-7.67-14.87-17.57-19.07-3.61-1.53-7.46-1-10.71.56l-3.37-3.23c-.82,1.12-1.21,1.91-.8,2.31l1.98,1.97c-3.24,2.19-7.01,4.3-8.96,7.67-4.31,7.41-5.11,16.52-2.78,24.49,1.37,4.66,4.42,7.42,7.61,10.56,3.79,3.73,8.91,7.82,9.68,5.99l.84-1.99c-3.1-.28-4.74-1.54-6.82-3.54l-6.39-6.15,1.13-1.37c-.92,1.12-6.2-7.09-2.18-15.22,2.46-4.99,13.87-9.54,16.92-5.3l6.97,9.7c2.57,3.58,2.19,8.89,3.08,13.17,1.58,7.54,1.54,14.54-.49,21.85-.88,3.15-1.59,6.33-3.51,8.81.25-4.02,3.37-7.4.51-10.81-1.13,4.59-1.61,9.36-4.5,12.44-6.34,6.73-14.58,11.03-23.74,12.7l-9.15.35-12.64-5.27-22.53-13c-3.45-4.19-7.28-7.57-11.52-10.86-1.84-2.28-3.84-4.33-6.34-5.83-3.09-1.85-5.24-4.31-7.42-7.11l-9.16-11.75-6.01-8.45-6.97-12.62-4.17-10-.81,1.25,4.22,11.98-.41.49c-2.07-2.68-3.8-5.63-5.09-9.17l-8.11-22.23,1.1-.38c-.18.39.59-.54.85-.94-2.17-7.43-2.92-14.14-3.29-21.62l-1.41-28.86c1.44,5.85,3.27,11.73,3.55,17.94l.66,14.99c.5,11.37,3.07,24.51,9.31,33.98,1.88,2.86,2.67,6.99,6.73,8.39l-5.34-9.37c-2.28-4.01-4.96-8.39-5.83-12.94l-2.47-12.98-1.23-22.09c-.39-6.94-.25-13.42.39-20.22l2.03-21.7-1.12-12.1,2.23-25.12,1.05-8.36c-.27-10.35.73-20.03,2.15-30.27l1.79-12.91.87-14.49c.29-4.8-.07-10.26,1.49-14.76l4.79-13.74c2.38-6.83,4.14-13.53,5.24-20.79l3.87-25.47.76-7.81c-.56.13-1.13.26-1.69.4l-.49,5.37ZM322.75,270.64l.34,4.71-.61.41-.34-4.71.61-.41ZM280.76,291.34l.02.49v.47s-.03-.47-.03-.47l-.02-.49v-.47s.03.47.03.47ZM84.51,281.33c-.86-6.96-.24-12.95.51-19.82l1.76,2.55-2.27,17.26ZM93.35,282.94l-.46-9.69c-.12-2.56-.82-4.12.71-6.29l1.5,12.18.94,18.23c-1.52-4.61-2.45-9.38-2.69-14.43ZM97.06,276.96c-1.19-6.03.05-12.25,1.14-18.06l1.72,22.37.15,10.88-3.01-15.19ZM107.8,267.47v1.07s0-1.07,0-1.07ZM108.01,258.65l-.02-3.71.66,3.32-.65.39ZM109.56,272.32l-1.13-13.3.68-.4,1.5,12.21.57,6.64c-.85-1.6-1.46-3.33-1.61-5.16ZM117.47,268.06l1.25,9.24-.61,1.28-1.4-10.85.75.33ZM118.71,294.62c-1.59-2.74-2.1-6.81-2.09-9.65l1.59,1.8c.26.29.83.05,2.13-.29l1.94,14.27-3.57-6.13ZM125.4,296.91l-.06,2.92.06-2.92ZM124.64,289.75l.37,6.15-.63.41-.37-6.16.63-.41ZM124.69,264.61l-.46-9.76.66-.41.46,9.76-.66.41ZM130.61,286.81l-.44-5.51.63-.39.37,4.66-.56,1.24ZM134.03,265.21l1.03-5.43.41,8.15c-.9-.69-1.6-1.94-1.45-2.72ZM136.47,288.04l-.78-7.92c-.17-1.75-1.16-3.4.75-4.52l.51,11.2-.48,1.24ZM137.49,257.34c-.55-1.93-.76-3.14-.47-5.76,3.68,1.97,4.05,11.78,4.16,18.73l-3.69-12.96ZM275.57,308.57l-.02-.49v-.47s.03.47.03.47l.02.49v.47s-.03-.47-.03-.47ZM412.4,566.57l1.38-8.82c1.02,2.95.11,5.94-1.38,8.82ZM308.83,268.97c.51,7.9,2.4,16.28,1.03,24.44l-2.43,14.41-1.5,11.36-1.05,8.32c-.52-6.21-.74-13.04.63-19.48.59-2.79.95-5.04,1.16-8.02l2.16-31.04ZM305.24,274.81l.55.45-.57,4.9c.56,3.6.63,5.85-2.15,8l2.17-13.35ZM298.14,288.06l.34,4.71-.61.41-.34-4.71.61-.41ZM298.15,294.62c0-.05,0-.1,0-.14q-.02-.67,0,0s0,.09,0,.14q.06,1.68,0,0ZM297.56,298.15c.88,4.37.52,8.37-.56,12.4l.56-12.4ZM294.36,288.71l.02.49v.47s-.03-.47-.03-.47l-.02-.49v-.47s.03.47.03.47ZM293.33,290.79l.75-.37-1.92,13.07-.78-.47,1.96-12.24ZM291.9,303.84l-4.17,27.18-.25-7.28,1.8-17.29,2.62-2.61ZM279.64,296.73c.12.23-.19,1.01-1.06,2.7l1.06-2.7ZM273.44,365.35c-.75,4.72-.25,7.19.13,10.84l.99,9.43c.16,1.55-1.37,3.84-1.73,5.35-1.11,4.65-.03,9.87.56,14.67l3.41,27.65,2.19,12.19c.53,2.97.88,5.61.25,8.32-2.48-6.53-2.79-12.73-4.16-19.35-3.29-16.01-5.52-31.68-5.93-48.04-.19-7.65-.18-14.95,4.29-21.05ZM275.61,400.54l.5-10.28c1.04,2.2,1.53,4.11,1.95,6.58l.16,27.31c-2.18-7.48-3.01-15.37-2.61-23.61ZM261.78,460.69l.65,9.5c-.67-1.94-1.13-4.12-1.4-6.43l-.69-5.99,1.44,2.92ZM258.87,439.17l-.24-11.12.86-7.58.9,20.25c.06.16-1.51-1.29-1.52-1.55ZM262.59,436.26l3.65,20.64,7.62,34.81-.58.39-9.9-33.74c-2.1-7.15-1.02-15-.8-22.1ZM265.92,445.59c.02.6.03.97.04,1.15q0,.14,0,0c0-.17-.02-.55-.04-1.15-.03-.88-.03-.88,0,0ZM266.66,448.29l.67,3.32-.65.39-.02-3.71ZM274.17,492.09l.04,2.99-.63-2.59.59-.4ZM271.26,472.91l-4.41-20.46.61-.43,2.84,9.43,1.96,8.35,2.79,17.55-.54.44-3.25-14.88ZM270.25,429.56l-1.03-7.31c1.12,2.32,1.52,4.57,1.69,6.87l-.66.44ZM269.37,420.22l.03.47.02.49v.47s-.03-.47-.03-.47l-.02-.49v-.47ZM263.06,361.07l2.25,49.21c.32,6.9,3.58,13.31,3.81,20.08l.79,22.92c-4.43-14.47-5.89-29.6-7.99-45.04l-1.38-10.17-1.12-10.73c0-8.88,1.28-17.28,3.64-26.29ZM259.29,340.37c.05-.54,2.32-1.22,2.19-.68l-1.21,5.21c-.03.14-.61.54-.72.62l-.95,1.73.68-6.86ZM259.84,345.99l.77-.28-.81,13.61-1.03,8.04-.29-11.67,1.36-9.69ZM258.42,367.96l.34,4.71-.61.41-.34-4.71.61-.41ZM258.23,410.51l-.03-.47-.02-.49v-.47s.03.47.03.47l.02.49v.47ZM257.78,373.74l.05,6.27-.25,11.15c-.96-5.83-.97-11.62.2-17.42ZM261.84,482.93c-2.45-10.61-4.52-20.34-4.99-31.37l-.48-11.42-.42-15.14.03-12.9.4-5.85.55-13.78c.82,4.43.26,8.97.27,13.7v15.69s1.01,31.56,1.01,31.56c.34,10.81,3.31,20.62,5.99,30.96l2.03,13.57.28,5.15-4.66-20.16ZM272.46,518.55c-2.32-6.08-4.2-12.87-4.11-19.98l6.51,20.68-2.39-.7ZM278.69,520.78v1.14c0,.49,0-.88,0-1.14ZM284.3,518.15l.02.49v.47s-.03-.47-.03-.47l-.02-.49v-.47s.03.47.03.47ZM287.28,537.91c-3.27-4.47-5.44-9.2-5.65-14.9,3.11,4.38,4.53,9.7,5.65,14.9ZM282.38,518.57c-2.48-4.35-3.19-9.27-4.11-13.98l.59-.43,3.52,14.41ZM278.41,514.99l-.03-.47-.02-.49v-.47s.03.47.03.47l.02.49v.47ZM278.46,503.8l-.56.42-.06-2.29.62,1.87ZM277.68,512.25l-.63-2.59.59-.39.04,2.98ZM277.22,508.89l-.61.39-.03-2.98.63,2.59ZM278.42,520.04l-.63.75c-4.68-13.34-8.72-26.97-10.95-41.55l6.81,21.71.71,5.89,4.06,13.2ZM282.61,495.07l-8.86-25.63-2.3-32.79-.72-6.74.3-.35,3.43,14.06,4.96,24.52,2.56,15.91c.62,3.86,1.43,7.35.62,11.03ZM280.03,416.25l.03.47.02.49v.47s-.03-.47-.03-.47l-.02-.49v-.47ZM283.25,470.7c0,.06.01.09.02.15,0,.05.01.1.02.16.21,1.63.2,1.54-.02-.16-.09-.66-.11-.85-.02-.15ZM282.59,454.3l-.93-7.92c-1.12-9.51-.07-18.9.61-28.08l2.75,21.5c-1.65,1.31-2.61,3.14-2.39,5.04l1.04,8.85.19,9.32-1.26-8.7ZM289.28,405.19c.72,15.1,2.8,29.83,2.03,44.9l.36,15.38.52,7.9-1.23-6.35-1.08-19.41-1.39-20.14-3.39-23.61-1.1-15.61.26-17.29.92-6.63c.8-5.77.49-10.98,1.79-16.89,1.18,3.28.87,6.5.98,10.18l.53,18.72-.05,10.85.85,18.01ZM294.09,378.31l-.74,9.46v8.9s-.51.42-.51.42l-.72-11.53-1.86-19.65-.86-9.6c-.35-3.92,1.61-7.67,3.45-11.53,3.12,4.59,2.92,8.95,2.61,13.49l-1.36,20.03ZM295.36,410.31l-.61.41-.34-4.71.61-.41.34,4.71ZM291.5,403.25l-.66.41-.49-11.2.66-.41.49,11.2ZM287.72,446.29l-1.52-8.65c-1.16-8.98-2.39-17.52-2.12-26.69,2.52,11.67,3.76,23.48,3.64,35.34ZM284.59,469.51l-.44-5.51.63-.39.37,4.66-.56,1.24ZM287.05,498.09l-1.2-7.23c1.45,2.01,1.97,3.97,1.2,7.23ZM287.96,499.78l-.02-.49v-.47s.03.47.03.47l.02.49v.47s-.03-.47-.03-.47ZM290.38,502.79l-1.42-7.02c1.82,1.67,2.66,4.14,1.42,7.02ZM289.9,485.92c-2.36-12.61-4.41-24.61-3.76-37.56l3,17.34,3.98,25.37c.06.37.9,1.99,1.15,1.72l1.54-1.7,1.43,10.98-.61.67-4.03-5.58c-1.97-2.73-2.05-7.74-2.7-11.25ZM292.72,476.28c1.44,3.89,2.33,7.5,2.12,12.1l-2.12-12.1ZM295.04,515.92l.02,1.34-.02-1.34ZM294.31,502.84c2.24,3.52,3.86,7.29,5,11.3l-.74.87c-1.89-3.74-3.67-7.54-4.26-12.17ZM297.3,504.08l.28-1.31-.28,1.31ZM297.96,518.84l.05.91-.05-.91ZM299.58,524.35l-1.25-3.9.68-.42,1.19,3.85-.62.47ZM299.34,515l.04,1.15-.04-1.15ZM300.37,524.48v1.06s0-1.06,0-1.06ZM303.52,535.01c1.89,3.02,2.81,5.83,3.28,8.7l-.89.78c-1.77-2.63-2.57-6.18-2.39-9.48ZM322.69,585.95l.02-.92c0-.09,0-.17,0-.2v.2c-.01.44-.03,1.34-.02.92ZM414.69,636.37c1.71-2.64,4.71-2.92,7.35-1.9l-7.35,1.9ZM454.14,615.23c-.01,3.88-3.83,6.67-6.89,6.69,5.93-7.02,3.37-14.52,6.94-21.33l-.05,14.64ZM443.88,576.16c2.11,2.95,3.3,6.84,2.96,11.12l-.66,8.4-2.3-19.52ZM445.48,596.33l-.06,2.92.06-2.92ZM445.28,601.16l-.92,2.29c.06.31-.65-.64-.52-.98l.92-2.29c-.07-.33.65.65.52.98ZM444.67,571.95v.46c0,.06,0,.12,0,.19v.49c0,.3,0-.09,0-.49v-.19c0-.2,0-.38,0-.46ZM442.45,561.82c-3.25-5.01-7.94-8.72-12.4-13.57,3.38.62,9.45,1.8,11.07,5.41l6.9,15.37c2.29,5.11,2.69,10.58,1.34,15.84-1.51-8.01-2.29-15.97-6.9-23.06ZM437.6,545.39c8.69,3.36,14.54,10.61,14.91,20.11.94,3.29,1.75,6.79,1.79,10.27l.14,12.59-2.22-1.52c2.15-12.41-4.81-34.92-14.37-39.29l-9.74-2.74c3.15-1.89,6.25-.68,9.5.57ZM416.26,559.92l1.33-2.94v-3.16c.01-.75,1.98-2.02,2.73-1.72l6.34,2.49-10.4,5.34ZM440.89,566.62c-2.74-5.12-5.51-9.21-10.53-11.92l-8.76-4.73c.76-.63,2.91-1.84,4.18-2.07,1.11-.2,2.76,1.42,3.75,2.38l6.31,6.11c4.14,4.02,7.14,9.08,8.6,14.76l-.72.75-2.83-5.27ZM447.47,602.1c-.92,6.25-3.59,12.81-9.91,15.64l9.91-15.64ZM439.94,620.22l9.99-9.71c-.62,4.03-1.78,9.66-5.31,11.76l-12,7.14c-3.57,1.26-6.73,1.97-11.39,2.18l6.83-5.32c4-1.33,8.75-3.01,11.88-6.05ZM393.37,626.68h-.9s.9,0,.9,0ZM390.29,625.66l1.79.32-.33.37-1.81-.3.35-.4ZM388.82,625l1.09.33-.34.37-1.09-.32.35-.37ZM352.89,599.08l12.9,11.97,11.41,6.52,11.2,7.16-.47.45c-2.24-.76-6.34-1.78-8.44-3.12l-10.14-6.47-4.35-2.72c-3.88-2.43-6.45-5.9-9.41-9.43l-3.41-4.08.71-.29ZM351.87,598.75l-.03-1.06.03,1.06ZM346.09,594.02l1.9,2.74c-.56-.22-1.84-1.29-2.24-1.86l.34-.88ZM344.44,591.99l1.15,1.41-.39.71-1.04-1.51.27-.61ZM343.93,591.45l-.19.56-2.04-1.26.6-1.02,1.63,1.71ZM341.91,589.15l-.5.88c-2.19-2.1-4.24-4.11-5.77-7.3,2.8,1.81,4.57,3.89,6.27,6.42ZM329.85,575.15c2.16,2.45,3.72,4.19,5.37,7.32l-5.47-4.35-3.77-5.86c1.93.75,2.72,1.59,3.87,2.9ZM333.03,583.01l-.52.81-1.14-2.42,1.66,1.61ZM322.71,566.53l.02.49v.47s-.03-.47-.03-.47l-.02-.49v-.47s.03.47.03.47ZM333.86,589.59c.88,1.17,1.62,2.02,3.36,2.88-.6-3.6-2.15-5.49-4.24-8.08l.66-.77,6.98,7.55,14.9,16.21c3.02,3.28,6.4,6.97,10.55,8.64l12.18,7.31c4.31,2.59,10.69,4.14,15.75,5.19l7.8,1.62c1.61.33,3.52-.05,5.1-.26,9.79-1.29,18.21-4.94,26.45-11.83-.53,2.51-2.78,3.76-5.01,5.43-3.46,2.58-7.12,7.17-11.81,8.06-15.27,2.91-27.21.66-40.69-6.37l-15.97-8.34c-6.72-3.51-12.5-8.31-18.16-13.3l-14.53-12.8-2.15-1.89c-.58-.51.18-2.47.36-3.35l-4.31-6.99,3.29,1.8-3.95-8.64,13.44,17.94ZM319.07,556.07l-.53,1.36.53-1.36ZM318.38,564.88l-.03,1.09.03-1.09ZM322.26,584.13l-.59.81-8.3-12.32c-1.47-2.18-2.28-4.88-2.35-7.9l11.24,19.41ZM316.14,567.54c0,.06.01.1.02.15,0,.05.01.1.02.16.21,1.62.2,1.54-.02-.16-.09-.66-.11-.85-.02-.15ZM318.09,564.3l-.65.52c-.89-1.12-2.68-3.15-3.45-4.7l-7.68-15.4.72-.66,11.05,20.24ZM309.7,543.91l.02-1.14c0,.25-.03,1.61-.02,1.14ZM309.37,542.04l-.53.73-5.19-11.97c-.93-2.14-2.25-4.05-1.06-7l6.78,18.24ZM304.79,522.76l-.39,1.49.39-1.49ZM304.07,522.09c-2.52-5.69-4.6-11.41-4.63-18.02l2.43,6.78c1.26,3.53,1.78,7.5,2.2,11.23ZM302,505.45l-3.95-12.76c-2.49-8.04-2.68-16.53-3.19-25.1l-1.51-25.89-.13-5.05-.55-12.74-.22-5.35v-10.3s.51-.41.51-.41l1.57,33.79,2.3,25.91c.58,6.54.8,12.95,2.36,19.83,1.02-11.8-1.18-23-1.43-35.41,1.4,4.05,1.75,8.67,1.99,13.29l.36,7.21,1.87,33ZM295.8,437.85c0,.06.01.1.02.15,0,.05.01.1.02.16.21,1.62.2,1.54-.02-.16-.09-.66-.11-.85-.02-.15ZM305.16,477.53l-4.73-25.94c-.74-4.08.26-8.37-2.46-11.88-1.7-14.42-1.05-28.75-1.29-43.47-.15-9.09,0-17.3,2.17-26.1l4.32-17.57c.49,7.02-.51,13.28-1.61,20.05-2.85,17.61-3.42,35.06-1.09,52.77,1.15,8.7,1.24,17.02,4.28,25.66.83-4.37-.42-8.43-.27-12.55l.34-9.6c1.84,2.54,1.14,5.32,1.17,8.67l.12,13.06c.09,9.22.46,17.96-.97,26.89ZM303.14,432.57l-1.5-11.28-.87-26.45,1.19-10.38c1.02,2.64,0,5.79.09,8.74l1.09,39.38ZM306.35,427.82l-.02-.49v-.47s.03.47.03.47l.02.49v.47s-.03-.47-.03-.47ZM308.05,419.63l-.33-3.27.58-.42.33,3.27-.58.42ZM309.11,414.1l-.59,1.28-.2-8.72.95,1.09-.16,6.35ZM309.24,365.76l-.02-.49v-.47s.03.47.03.47l.02.49v.47s-.03-.47-.03-.47ZM309.48,375.41c0,.06.01.09.02.15,0,.05.01.1.02.16.21,1.63.2,1.54-.02-.16-.09-.66-.11-.85-.02-.15ZM311.73,375.04l-.02-.49v-.47s.03.47.03.47l.02.49v.47s-.03-.47-.03-.47ZM310.56,346.92l-3.66,20.89-.06,6.39v8.67s-.33,13.67-.33,13.67l-.32,8.78.1,14.35-.88,5.82-.46-12.28.33-11.59.15-10.76.16-10.76.25-11.58-.14-15.68c-.03-2.94-.41-6.93.15-9.7-.37-1.24-.72-3.22-.25-4.75l2.91-9.41c1.72-.44,1.18-1.16-.46-1.18-3.43,5.71-1.53,11.39-5.34,12.73-1.22,10.83-3.38,21.46-6.43,32.02l.41-23.76c.05-3.19-2.36-5.88-5.43-5.3l-1.95,4.99-1.51-9.16c-2.71,5.11-3.02,10-4.11,15.15l-1.45-6.61c-.49-.24-1.44,1.38-1.39,2.03,1.15,16.11,1.06,31.52.24,47.58l-.67,13.05-1-16.55c-.17-2.88-1.48-5.5-3.56-7.3l-.06-31.33c-.85-2.1-1.01-4.27-.92-6.69l.41-11.44c.15-4.06,1.18-6.69,5.3-7.39,2.05-9.26,3.53-19.08,7.17-28.58l-1.68,23.26c-.24,3.26-.02,5.9,1.18,9.01,1.5-1.27,2.25-2.55,2.45-3.87l2.74-18.52,3.2-15.08-1.06,28.12.54,1.95c.11.4,1.49.27,1.63-.13l.62-1.86c-.1-3.41.37-6.42,1.88-9.22.98-8.68,1-17.67,5.81-25.52l-2.29,38.97c.24.63,1.07,2.46,1.47,2.11l2.02-1.76,3.34-24.83.63-.41.06,9.16c3.52-1.74-.07-10.66,2.26-17.95.53,3.51.64,6.57.3,9.91-.28,5.09.52,10.25,1.54,15.3l-3.86,27.01ZM313.23,335.75l.15,2.96-.15-2.96ZM313.51,364.17l-.02-.49v-.47s.03.47.03.47l.02.49v.47s-.03-.47-.03-.47ZM313.79,335.17c-.25-3.68.39-7,1.5-10.28-.04,3.73-.69,6.93-1.5,10.28Z"/>
      <path class="cls-1" d="M220.8,34.58h0c.74.12.93.15,0,0Z"/>
      <path class="cls-1" d="M295.49,121.26l6.36,4.18-.57-1.07-6.4-3.8c.2.23.41.46.61.69h0Z"/>
      <path class="cls-1" d="M309.5,375.56c0-.05-.01-.09-.02-.15-.09-.7-.07-.51.02.15Z"/>
      <path class="cls-1" d="M294.76,112.49s.1,0,.15,0l-.25-.47s0,0,0,0l-5.08-.23c1.42.73,3.24.81,5.11.71l-.04-.08s.08.05.12.07Z"/>
      <path class="cls-1" d="M295.09,112.47c1.04-.07,2.09-.18,3.09-.25-.01-.02-.03-.03-.04-.05l-3.49-.16h0c.11.12.26.27.44.46Z"/>
      <polygon class="cls-1" points="294.65 112.01 294.65 112.01 294.65 112.02 294.65 112.01"/>
      <path class="cls-1" d="M294.65,112.02l.25.47c.06,0,.13,0,.19-.01-.18-.18-.33-.33-.44-.46Z"/>
      <path class="cls-1" d="M294.76,112.49c.08.04.15.09.22.13l-.08-.14s-.1,0-.15,0Z"/>
      <path class="cls-1" d="M294.98,112.62c.33.19.63.39.89.61-.3-.29-.56-.54-.77-.76-.06,0-.13,0-.19.01l.08.14Z"/>
      <path class="cls-1" d="M298.57,112.19l-.43-.02s.03.03.04.05c.13-.01.26-.02.39-.03Z"/>
      <path class="cls-1" d="M308.98,118.45l.64.56c-.21-.31-.42-.61-.65-.92,0,.12,0,.24.02.36Z"/>
      <path class="cls-1" d="M310.13,115.98l-3.08-.37.56,1.64.3.26c.99-.04,4.77-2.81,7.22-4.23l-.31-.62-4.74.25-.54-1.25c-1.1.5-2.27,1.03-3.36,1.39l.77,2.27c1.37-.24,2.63-.24,3.19.67Z"/>
      <path class="cls-1" d="M295.82,438c0-.05-.01-.09-.02-.15-.09-.7-.07-.51.02.15Z"/>
      <path class="cls-1" d="M317.2,112.52l-.65.03s-.1.04-.15.06c-.01.36-.03.72-.05,1.09l2.01.66-.91-1.71c.65.51,1.38.8,2.16.97l.03-1.28c0-.14.09-.24.22-.33-.71-.86-1.83-2.59-2.04-3.71-.69-.23-1.41-.4-2.08-.59.61,1.51.71,3.12.65,4.84h.15c.31-.12.54-.14.65-.04Z"/>
      <path class="cls-1" d="M194.8,66.66c-.05,0-.09,0-.14,0,.65.04.84.05.14,0Z"/>
      <path class="cls-1" d="M304.39,114.24l-.11.08.59.52c-.14-.24-.29-.46-.48-.59Z"/>
      <path class="cls-1" d="M316.55,112.56h-.15s0,.05,0,.06c.05-.02.11-.05.15-.06Z"/>
      <path class="cls-1" d="M294.64,112.42l.04.08s.05,0,.08,0c-.04-.02-.08-.05-.12-.07Z"/>
      <path class="cls-1" d="M322.71,585.03v-.2s0,.12,0,.2Z"/>
      <path class="cls-1" d="M295.49,121.26h0c-.2-.23-.41-.46-.61-.69l-4.4-2.61,5.02,3.3Z"/>
      <path class="cls-1" d="M305.53,115.42l-.66-.58c.09.16.17.34.23.53l.43.05Z"/>
      <path class="cls-1" d="M306.95,115.3c-.29.05-.58.11-.88.18l.98.12-.1-.3Z"/>
      <path class="cls-1" d="M304.04,115.24l.17.69c.32-.07.65-.15.99-.23-.03-.11-.06-.22-.1-.33l-1.06-.13Z"/>
      <path class="cls-1" d="M305.53,115.42l.17.15c.12-.03.24-.06.37-.09l-.54-.07Z"/>
      <path class="cls-1" d="M298.15,294.62q.06,1.68,0,0c0-.05,0-.1,0-.14,0,.05,0,.09,0,.14Z"/>
      <path class="cls-1" d="M124.48,344.14l-.54-18.67,1.28-.17,1.32,9.36,1.29-10.81c1.45.08,1.67.07,1.66.08-.02.01.13,1.59.18,1.87l1.36,7.78.32-23.87c.03-1.93.1-3.26,1.81-4.31l.94,12.64,4.26,23.46h.57s-.91-9.01-.91-9.01l-1.06-10.58-.02-1.6c0-.41,1.22-.64,1.59-.65l.66,4.62.83-2.58c.12-.37.61-.41,1.67-.55l7.98,31.15.44-.42-2.01-14.6c-1.32-9.57-.43-18.84,1.01-28.9,2.08,5.37,1.4,10.41,2.39,15.52l5.25,27.17,5.93,25.41c.3-3.37-.04-6.27-.44-9.5l-3.33-26.46c-.7-5.6-.68-11.27,2.68-16.76l5.84,31.39c2.21,11.89,3.96,23.47,8.04,34.74l-4.28-30.39c-1.5-10.67-3.59-20.8-3.63-32.08,3.29,3.68,2.51,8.35,3.22,12.63l3.03,18.15c1.42-3.83-1.78-7.32,1.67-10.84l2.5,14.85,2.78,29.35.3,12.91-.08,5.39v11.99s-1.09,17.12-1.09,17.12l-1.2,15.38c-.49,6.31-2.78,12-4.52,18.07l-1.89,12.91-2.44,15c-.99,6.08-2.77,11.49-5.96,17.06l-1.65-3.1-.36,8.63-.69,17.68-1.35.14-.83-19.65c-1.71,2.63-2.45,5.54-3.24,8.79l-1.62,6.69c-1.39,5.76-1.97,10.83-6.11,16.15l-1.72-6.7-4.38,8.56c-1.11,2.17-2.73,5.45-2.25,7.32.14.53,2.72-.69,2.46-.03-.12.32-.8,1.7-1.1,1.71l-4.01.14,2.19-17.99-6.44,14.73-2.42,5.06,4.09-2.4c-.8,4.51-4.24,6.15-6.58,9.63-1.58,2.35-2.56,5.96-3.17,9.06,5.68-5.56,8.02-12.82,14.99-17.2l-12.17,16.86c-4.59,6.36-10.55,11.48-16.63,16.41l-8.05,6.53-9.7,6.2c-5.43,3.47-10.89,5.26-16.89,7.4-5.26,1.88-10.01,3.8-15.71,4.6l-15.56,2.2-6.48,1.13c-7.88,1.38-10.99-.98-15.02-6.77l-8.05-11.57c-1.64-2.36-4.06-4.18-5.27-6.91l-9.41-21.22c-1.65-3.73-.47-9.48.84-13.09l5.36-14.77c.53-1.45,1.23-4.92,2.44-5.81,8.16-6,13.38-5.32,22.62-4.49,4.89.44,7.94,2.39,11.55,5.8,1.51,1.43,5.36,2.86,6.06,5.03,1.31,4.05,1.78,8.33.26,12.64-2.16-5.71-3.6-10.03-7.8-13.27-5.62-4.33-12.47-3.96-17.1,1.93-5.33,6.79-7.63,15.82-6.18,24.62l2.93,17.77c.99,6.03,4.37,11.12,7.59,16.75l5.87-2.35-3.39,3.64,5.67,3.85c1.89,1.28,4.13,1.71,6.61,1.36l-1.3-1.94c-.26-.38.71-1.69,1.02-1.64,1.75.97,5.25,3.71,7.12,3.38l12.94-2.32c4.39-.79,8.24-4.77,12.45-6.24,2.94-1.03,5.62-1.99,8.16-3.6,5.3-3.36,10.62-6.62,14.98-11.14,5.48-5.67,9.03-12.39,13.31-18.99,4.01-6.18,9.41-11.73,11.75-18.8l7.76-23.45c2.29-6.94,2.79-14.53,3.32-21.82l-.16-9.77c-.17-10.43-4.37-19.86-7.46-29.7l-7.57-24.09-9.84-40.66-7.84-37.16c-2.55-12.07-4.55-23.66-6.72-35.68-1.19-6.62-5.72-14.83-3.22-19.35l1.99,7.57-.47-8.39-.98-5.77c2.54.06,3.02,3.12,2.49,5.8-.46,2.31.56,4.3,1.12,6.33l4.15,15.13c-.13.21-.67.71-.85.53l-1.75-1.74,1.35,4.98,2.01-2.1,7.98,25.93c-.12-10.93-2.76-20.21-4.99-30.04l.42-1.76c.08-.34,1.05.18,1.46.41l3.02,10.32c.93-2.56.8-5.03.35-7.95l-3.32-21.81,1.53-.21,2.97,12.61,4.02,11.88c.71-6.54-2.32-11.96.19-18.92l2.93,13.25.92-1.84c.17-.34,1.44-.56,1.52-.2l3.07,13.89.52.13ZM149.8,416.39l-.45-10.55c-.21-4.62.81-9.94-.31-14.55l-9.32-38.35-7.02-31.21c-.04,14.9,1.37,29.5,4.39,44.3l6.78,33.28,3.02,11,2.91,6.08ZM152.99,388.08l4.06,14.85c1.43-3.42,1.21-7.01.39-10.76l-4.35-19.97-11.63-45.68c-.4,5.55-.21,10.65.94,15.96l6.65,30.82,2.74,1.2c-.05,4.28-.04,9.01,1.2,13.56ZM111.93,333.07l-.62-1.87.06,2.29.56-.42ZM146.43,416.94l-7.52-33.33-6.68-36.04-3.59-16.94c-.83,8.42-.01,16.16,1.41,24.43,2.98,17.33,6.86,34.09,11.21,51.13l5.25,20.57-.07-9.82ZM173,387.03l-6.17-29.56-5.57-26.96c-1.32,4.18-1.31,8.88-.69,13.56l5,37.59,1.05-7.15c.97.4,1.54,1.92,1.59,2.97l.56,12.6,2.08-3.76c.24-.44,1.53.97,1.56,1.26l.59-.55ZM112.28,333.48l-.52.38,3.58,17.51,12.88,49.24.56-.42-9.09-41.4c-1.86-8.83-4.24-17.36-7.41-25.31ZM119.16,342.91l-1.91-9.64c-.16.36-.51,1.22-.47,1.48l2.4,14.97c.39-2.12.37-4.82-.02-6.81ZM140.79,429.89l-5.47-24.54-8.98-43.4-5.52-24.54c-.16,10.96,2.06,21.16,4.2,31.82l6.71,33.32,5.91,25.59,2.47,2.25.67-.49ZM150.56,344.4l.61-.41-.34-4.71-.61.41.34,4.71ZM139.38,342.18l-.72.11.69,2.55.03-2.67ZM125.09,344.84l-.71.11.65,2.56.06-2.67ZM113.54,353.57c-.6-2.98-1.04-5.34-2.2-8.35l1.49,9.11.71-.76ZM152.17,349.69l-.7-4.04v4.43s.7-.39.7-.39ZM127.08,351.7l.58-.42-.33-3.27-.58.42.33,3.27ZM152.39,350.07l-.64.44,5.04,25.35.76-.45-5.16-25.34ZM139.92,431.02l3.09,22.76c.13.96,1.6,2.55,2.55,3.33l.13,8.41c.92,7.26,2.83,13.83,5.8,20.24l-1.32-20.38-1.32-17.94c-.55-7.44-2.2-14.37-4.04-21.55l-7.21-28.25c-3.9-15.26-7.06-30.12-9.65-45.43-.83,5.23,1.12,10.08,1.33,15.18.18,4.31,1.35,7.95,2.18,12.05l6.95,34.45c1.95,9.66,5.42,18.39,6.28,28.37-2-4.11-2.74-8.1-3.82-11.94l-.96.7ZM109.05,376.69l-6.17-22.75-.5,1.2,3.96,18.51,2.71,3.04ZM150.31,352.86l-.09-.11c.28,2.04.28,1.88.09.11ZM113.74,354.31l.02,1.14-.02-1.14ZM151.15,357.43c-.1-.79-.14-1.07-.04-.31.24,1.86.26,1.98.04.31ZM114.54,358.58v.47s.02.49.02.49l.03.47v-.47s-.02-.49-.02-.49l-.03-.47ZM123.56,412.38l2.61,9.14-.7-7.12-5.1-25.1-7.77-30.28c.06,3.9.96,7.2,1.46,10.86l7.06,31.06-.09,2.87,2.54,8.56ZM157.83,362.97c-.1-.79-.14-1.07-.04-.31.24,1.86.26,1.98.04.31ZM162.26,379.18l-1.94-8.25-1.96-6.03,3.89,21.68c.46-2.41.52-5.18,0-7.39ZM120.17,375.68v.47s.02.49.02.49l.03.47v-.47s-.02-.49-.02-.49l-.03-.47ZM157.74,375.79l-.7.47,3.33,16.47,1.79,8.15c.24-2,.57-5.4.12-7.02l-3.23-11.66-1.31-6.4ZM121.53,381l-.63-2.59.03,2.98.61-.39ZM122.1,436.44l-1.75-9.7-7-32.84c-1.01-4.73-1.41-9.31-5.03-12.94l5.93,29.76,6.97,26.21.86-.48ZM121.91,381.37l-.7.46,3.84,15.29.78-.5-3.92-15.26ZM172.8,388.04l2.85,23.17,2.31,31.75,1.71-21.76.23-8.76-.53-22.9-2.06-3.19c.02,3.24.17,4.89-.92,8l-3.26-6.93-.33.62ZM164.55,394.4c1.19-1.87,1.44-4.05.72-5.98l-.72,5.98ZM166.76,411.41l1.39-18.81c-2.03,1.09-1.44,2.65-1.55,4.5-.32,5.17-1.22,9.88.16,14.31ZM115.56,397.07l-.39-1.97c-.23.44-.55,1-.46,1.3l.33,1.1.53-.43ZM115.98,397.43l-.56.4.46,3.91.58-.38-.48-3.93ZM125.94,397.1l-.73.47,13.18,48.08.64-.45-1.78-7.62-7.59-26.97-3.71-13.5ZM152.6,396.89v.47s.02.49.02.49l.03.47v-.47s-.02-.49-.02-.49l-.03-.47ZM129.02,400.57l-.47.39.46,3.22.48-.4-.47-3.22ZM158.17,452.95c.68-3.73-.45-7.59-.62-11.54l-1-23.83c-.08-1.83.6-5.41.1-7.07l-3.23-10.66-.2,8.62,2.76,28.59,1.02,8.7,1.17,7.19ZM116.9,401.73l-.59.39.63,2.59-.04-2.98ZM125.23,404.65l-.63-2.59.02,2.98.61-.39ZM129.92,404.18l-.55.38.63,1.9-.08-2.28ZM160.52,415.31c.46-5.18,0-8.71-1.13-12.53-1.04,2.21-1.49,4.38-1.02,5.85l2.15,6.68ZM125.42,405.05l-.44.41,3.16,18.07c2.44,13.96,6.04,27.19,10.83,40.52l1.94,6.94c.97-4.23,1.05-8.61-.25-13.12l-15.24-52.83ZM177.1,455.84l-.51-6.55-2.44-34.81-1.21-9.01,1.44,30.27,1.03,11.45c.28,3.15,0,5.75,1.68,8.64ZM131.46,459.13l-7.61-37.05-3.71-12.41c3.78,23.7,8.07,45.75,13.5,68.17-.03-6.43-.87-12.32-2.18-18.71ZM168.86,419.86l.39-11.2-.72.3-.89,11.03.08,1.63c.01.24,1.12-1.39,1.13-1.77ZM162.63,418.3c1-2.95,1.07-5.41.85-8.93l-1.56,1.52.7,7.4ZM155.11,442.12l-1.02-10.06-1.24-11.42-1.26-9.36.45,15.81,1.08,7.82,2,7.2ZM159.63,441.45l2.4-14-.56-11.87-.65.83-.23,3.66-2.38-2.89,1.42,24.28ZM164.98,441.74c.83-7.67.36-13.84-.74-20.84-1.07,4.98-.72,9.8-.48,15.25.1,2.19.37,4.07,1.22,5.59ZM168.66,428.86l.56-1.24-.37-4.66-.63.39.44,5.51ZM152.76,487.12c2.42-5.91.3-11.31-.08-16.66l-1.05-14.63-1.23-24.23c-.1-1.89-1.38-4.79-2.07-6.5l1.41,14.95.41,8.82,1.19,14.67,1.42,23.57ZM167.43,436.03l.6-.42-.33-3.99-.6.42.33,3.99ZM122.39,436.82c-.43.18-.52.24-.55.35l-.58,2.13c-.11.39.9.85,1.51,1.15l-.38-3.64ZM169.72,436.04c-.1-.79-.14-1.07-.04-.31.24,1.86.26,1.98.04.31ZM160.59,460.7c1.53-2.78,3.18-6.43,2.98-9.29l-1.12-15.8-1.12,5.35c-1.38,6.59-1.41,12.95-.74,19.74ZM171.9,440.2l.6-.42-.33-3.99-.6.42.33,3.99ZM124.65,448.61l-1.05-6c-.06-.32-.31-1.48-.32-1.47-.01.02-.84.77-1.13,1.04l2.01,6.82.49-.39ZM168.48,446.08l.61-.41-.34-4.71-.61.41.34,4.71ZM139.27,445.64l-.54.39.64,1.9-.09-2.29ZM172.37,456.03l.66-.41-.47-10.48-.66.41.47,10.48ZM125.05,448.99l-.64.39.66,3.32-.02-3.71ZM155.77,450.79l.06-2.92-.06,2.92ZM166.13,458.94c1.47-4.23,2.07-7.15.51-11.02-1.38,3.73-1.47,7.44-.51,11.02ZM157.36,467.28l-3.76-17.94c-.42,9.89.36,18.99,2,28.77,1.53-3.29,2.48-7.42,1.76-10.83ZM125.74,453.29v.47s.02.49.02.49l.03.47v-.47s-.02-.49-.02-.49l-.03-.47ZM162.68,481.68c1.15-7.52,2.02-14.68,1.29-23.01-4.24,6.21-2.97,14.95-1.29,23.01ZM167.02,467.58c1.97-2.56,1.74-4.59-.22-5.74l.22,5.74ZM164.57,512.49l4.08-13.4,2.81-18.96c.79-5.32.96-10.2-1.31-15.73l-1.09,9.04c-.37,9.61-1.53,18.78-4.11,28.02-1.11,3.95-1.74,7.53-.37,11.04ZM134.78,470.3l.58-.42-.33-3.27-.58.42.33,3.27ZM165.94,490.14l1.8-20.07c.06-.72-1.75-1.81-2.08-1.41-.78,6.93-.69,14.68.29,21.49ZM139.49,492.5l-1.76-11.46-2.27-9.42,2.01,24.51c.24,2.88,1.51,6,2.43,8.61l-.41-12.25ZM144.37,474.96l.06-2.92-.06,2.92ZM145.26,510.9l-3.43-21.44-1.12-10.38-3.1-6.03,2.91,17.83.54,6.47.14,11.68c.03,2.86,1.72,6.32,3.24,9.43.95-2.27,1.24-4.96.83-7.57ZM161.93,500.61l.07-9.73-1.61-7.1-1.64-8.64-.17,14.06c-.09,7.5.31,14.57,2.21,21.63,1.13-3.6,1.11-6.49,1.13-10.21ZM157.38,489.63l-.23-9.5-1.21,3.75,1.43,5.75ZM148.22,503.24l2.12-6.77-3.47-13.11.06,16.09,1.29,3.8ZM151.77,492.17l-.12-4.64c-.77.74-1.51,1.91-1.17,2.49l1.28,2.15ZM144.25,492.25l.06-2.92-.06,2.92ZM149.75,510.85l-.6,10.8.36,13.46c5.24-6.9,9.18-20.11,8.33-25.88l-3.05-20.69c-4.46,7.2,1.3,16.98-1.23,23.21l-2.42-10.65-1.82,4.08c-.68,1.51.51,4.26.43,5.67ZM138.79,520.6c.96-3.73,1.75-7.59-.71-11.25-.76,3.94-.23,7.44.71,11.25ZM143.08,526.55l-2.08-9.29-1.72,10.27,3.8-.99ZM134.53,533.43c3.8-2.8,3.62-5.87,1.53-9.52l-1.53,9.52ZM145.28,530.32c1.79-2.06,1.78-4.1.78-6.5l-.78,6.5ZM141.36,529.84v.47s.02.49.02.49l.03.47v-.47s-.02-.49-.02-.49l-.03-.47ZM139.77,534.71c1.25-.48,1.55-1.66,1.01-2.72l-1.01,2.72ZM144.35,532.59c-.62.66-1.81,2.5-1.92,3.5l-1.89,17.13c4.77-8.11,7.93-12.84,3.81-20.63ZM148.66,549.12c2.29-4.71,3.78-9.49,4.56-16.04-2.45,2.58-3.31,6.01-4.4,9.64-.6,2.01-2.17,3-.17,6.4ZM136.47,534.33v.47s.02.49.02.49l.03.47v-.47s-.02-.49-.02-.49l-.03-.47ZM132.62,544.61l2.78-8.1c-3.53,6.68-6.8,13.41-7.83,21.34l5.05-13.24ZM133.6,547.29c3.52-2.72,4.26-6.37,5.56-10.19-.75.29-2.35,1.35-2.6,2.04l-2.96,8.15ZM37.24,545.25l-8.91-1.69c-.12,1.27.72,3.08,1.51,2.97l7.39-1.28ZM20.06,598.4c-3.72-18.25-7.28-38.33,7.74-50.42.33-1.04-1.13-3.16-2.28-3.64l-5.91,6.03-6.16,24.98c-.89,3.6,1.72,8.1,2.36,11.55.79,4.27,1.5,8.21,4.25,11.5ZM16.44,546.77l-1.22-1.38c-3.3,2.72-4.74,4.68-5.4,8.56,3.23-2.16,4.13-3.31,6.62-7.18ZM9.08,568.11c2.28-1.28.85-7.62,3.79-14.28-.98.44-3.72,2.79-3.73,4.23l-.06,10.05ZM126.03,570.21c3.3-5.67,5.4-11.13,7.1-17.25-3.57,5.24-6.58,10.75-7.1,17.25ZM11.19,584.28l-4.92-17.42.27-6.45c-2.35,8.4-.12,16.57,2.55,24.93l2.18,6.78c1.28-2.4.71-5.04-.08-7.84ZM13.04,568.95l1.51-7.92c-1.32,2.29-2.18,4.94-1.51,7.92ZM68.25,618.6l25.98-14.62c6.59-3.52,11.32-8.16,16.27-13.49l4.13-4.45c.78-5.91,3.2-10.28,5.46-16.06l-11.27,16.14c-5.53,7.93-11.39,14.4-19.62,19.38l-7.69,4.65c-4.35,2.63-11.74,2.75-13.26,8.46ZM118.26,581.11c1.93-3,3.26-6,3.99-9.58-1.82,3.02-3.33,5.89-3.99,9.58ZM6.05,582.4l-.62-1.87.06,2.29.56-.42ZM6.35,582.78l-.36.38.42,1.79.37-.38-.43-1.78ZM7.27,584.89l-.71.47c.36,1.56.82,2.98,1.68,4.75l-.97-5.22ZM123.8,583.35c-3.96-.9-4.82,1.9-4.39,4.49,1.67-1.39,3.26-3,4.39-4.49ZM17.31,605.16c-.92-3.8-1.85-6.28-3.27-9.79-1.13,1.8.93,6.62,3.27,9.79ZM20.61,599.58v.47s.02.49.02.49l.03.47v-.47s-.02-.49-.02-.49l-.03-.47ZM82.95,613.01c4.72-.62,6.72-3.06,9.48-5.2l-9.48,5.2ZM40.06,623.3c-2.5-2.21-4.29-3.21-6.76-4.31l-8.33-3.71c2.04,7.18,7.14,8.26,15.09,8.02ZM64.67,619.7c.45,0,1.66-.83,1.57-1.22-.06-.26-.27-1.06-.15-.59l-8.43,1.81h7.01ZM45.92,619.93l-.47.03h.47s.49-.02.49-.02l.47-.03h-.47s-.49.02-.49.02ZM51.15,622.37l-.99-1.39-6.19,1.32,7.17.07Z"/>
      <path class="cls-1" d="M130.55,62.61c.25-3.34,1.96-6.24,4.84-7.81l-4.84,7.81Z"/>
      <polygon class="cls-1" points="254.51 371.06 254.18 367.79 254.76 367.37 255.09 370.64 254.51 371.06"/>
      <path class="cls-1" d="M254.79,356.58l.06-2.92-.06,2.92Z"/>
      <path class="cls-1" d="M263.28,348.42c.03,1.67.03,1.71,0,0-.04-.9-.04-.88,0,0Z"/>
      <path class="cls-1" d="M263.9,345.52q.06,1.68,0,0-.03-.88,0,0Z"/>
      <path class="cls-1" d="M253.99,374.45c.24,1.86.26,1.98.04.31-.1-.79-.14-1.07-.04-.31Z"/>
      <path class="cls-1" d="M253.33,438.6c.24,1.86.26,1.98.04.31-.1-.79-.14-1.07-.04-.31Z"/>
      <polygon class="cls-1" points="91.86 306.78 91.89 307.25 91.9 307.73 91.91 308.2 91.88 307.73 91.86 307.25 91.86 306.78"/>
      <path class="cls-1" d="M249.48,213.06l5.73,4.6c4.88,2.23,9.82.44,14.64-.48l10.76-2.05c2.85-.54,6.5-3.68,8.4-5.85l6.66-7.62-4.55-3.68c-3.39-2.75-8.23-3.74-12-5.86-4.12-2.32-7.65-3.06-12.29-.87l-9.81,4.61c-3.11,1.46-4.46,4.09-6.54,6.76l-5.41,6.96c-.22.28-1.5.83-1.82,1s-.26-1.81-.06-2.09l5.51-7.47c-2.76-.98-4.66-2.12-5.24-4.57,3.07-.84,5.02,4.65,8.49.62-2.93-.63-5.7-3.5-6.18-6.5.2-.25,1.39-.81,1.57-.48l1.04,1.93,1.28-1.07c-.82-2.3-1.23-4.7-.67-7.32,4.61.68,2.75,5.47,6.84,8.4l2.36-1.56c-3.51-2.99-4.39-6.27-3.08-10.86,3.39.52,2.53,4.67,6.33,7.79,2.2,1.81,5.42-4.18,5.38-10.82,0-.47.89-1.54,1.17-1.29s1.14,1.35,1.13,1.72l-.11,8.51c2.78-.69,3.39-3.99,3.73-6.91l.26-2.21c.05-.4,1.17-.33,1.87-.28l.35,8.26c.02.56,1.26,1.77,1.81,1.62s2.05-.95,2.24-1.49l2.21-6.52c4.5,2.57.29,7.9,1.82,9.61.45.5,2.43-.16,2.79-.79,2.94-5.14,1.51-6.61,3.6-7.7.42-.22,1.13,1.38,1.06,1.95l-1.32,10.02,7.31-4.75c1.25-.81,1.8-1.55,3.72-1.75l-2.53,4.94-4.33,6.73c2.64.06,4.48-1.62,6.1-3.6l3.79-4.62c.87,5.58-2.59,9.18-5.2,13.28,1.24,1.88,2.17,3.92.92,6.61l-2.07-4.35c-5.71,4.63-9.45,12.51-18.17,14.06l-9.59,1.7c-4.92.88-10.84,3.53-15.29.18l-5.88-4.43c-.37-.28-.76-1.52-.84-1.98s1.76-.35,2.12-.06Z"/>
      <path class="cls-1" d="M173.4,188.58c-7.56-1.75-8.81-2.16-17.48,2.09l-7.4,7.03-8.5,7.46-3.63,2.98c-1.72-3.44.51-5.85,2.82-8.02-3.44-1.41-5.65-3.25-7.28-6.05l-1.23-2.11c-.28-.47.99-1.77,1.47-1.95l3.76,5.15,10.16.13c-.62-4.51-10-2.17-10.15-8.93l4.14,2.11c2.45,1.25,6.98.92,9.73-.14-5.58-8.88-.85-11.27-.69-10.04.06.49.31,2.6.74,2.84l7.75,4.29-1.46-8.94c-.07-.41,1.58-1.4,1.71-.97l.62,2.1,1.45,3.91c.34.92,3.23,1.26,4.23.91,2.36-3.48,1.41-7.38,3.84-8.58.46-.23,1.13,1.45,1,1.98l-1.59,6.37c-.08.32,1.29,1.49,1.56,1.31.41-.26,1.44-1.01,1.71-1.49l3.44-5.97c3.02,2.98-.43,6.66.98,9.55.31.64,2.58-.11,2.99-.68,1.29-2.31,1.67-4.18,4.4-6.62l-.23,12.06c3.12-1.28,4.61-3.18,6.09-6,.91-.27,1.84,2.62,1.3,3.46l-2.82,4.41c3.65,2.03,7.78.04,10.1-3.41.63.02,1.47-.03,1.41.21l-.37,1.39c-.85,3.15-3.53,5.79-7.6,5.76l2.51,4.94c.35.69-.52,2.85-1,2.78l-3.87-4.91c-2.62-3.32-4.87-5.9-8.97-7.21-1.54-.49-4.09-2.85-5.65-3.21Z"/>
      <path class="cls-1" d="M174.98,167.71c-6.68-3.48-13.1-3.2-20.07-1.81l-12.65,2.52-8.78,2.65c-1.05-2.19.97-2.89,2.33-3.91,3.93-2.95,7.76-5.15,12.41-6.71,7.79-2.62,14.01-4.42,21.96-2.43l6.35,1.59,10.74,2.83c4.73,1.25,8.79,3.43,11.96,7.56l-2.94,7.08c-7.4-2.64-14.12-5.61-21.32-9.36ZM166.27,160.1l-1.77-1.43c-.21-.17-1.44,1.05-1.18,1.08l2.95.35ZM179.53,161.3l-5.31-.72c1.64,1.32,3.59,1.65,5.31.72ZM145.25,162.57l1.57.16-1.57-.16ZM152.2,164.57c-2.72-.62-5.53-.22-8.07,1.17l8.07-1.17ZM171.8,163.7c-.86.07-1.16.2-.04.37l.04-.37ZM172.79,164.37l-.04.37c.86-.07,1.16-.2.04-.37ZM196.73,169.77c-.13-.55-1.99-.7-1.86-.26.29,1.24.67,2.25.46,2.73l-.94,2.22c1.46-.04,2.82-2.64,2.35-4.7ZM190.32,172.59l-.47.03h.47s.49-.02.49-.02l.47-.03h-.47s-.49.02-.49.02Z"/>
      <path class="cls-1" d="M188.92,311.49l-2.36-1.09c-.4-.19-.2-1.06.28-2.14l8.43,3.69c3.05,1.34,5.63,1.83,8.93,1.33l20.48-3.09,5.86-2.62-8.92-5.78-6.08,4.65c-2.74-2.36-4.98-4.36-7.27-4.68-6.96-.98-9.13,5.45-13.77,8.23,1.35-7.25,8.56-11.26,15.29-10.35,1.41.19,3.81,2.49,5.11,3.47,2.38,1.79,3.9-6.37,9.9-2.52l9.12,5.84,4.71-.82c-1.17,3.84-4.31,3.67-6.74,4.69-3.74,5.25-7.27,11.15-13.42,14.02-5.56,2.59-13.87,1.58-18.22-2.51l-4.86-4.57c-1.03-3.33-3.28-4.28-6.47-5.75ZM197.59,315.87c4.83,6.94,12.37,8.36,19.82,6.81,4.6-2.9,8.33-6.97,11.12-11.24l-9.83,2.11-14.29,1.89-6.82.43Z"/>
      <path class="cls-1" d="M299.91,172.89c-2.83.11-4.61.56-6.58-.27l-10.63-4.47c-2.42-1.02-7.53.15-10.31.34l-7.1.48c-3.73.25-6.93,1.48-10.79,3.06-1.23-2.15-2.01-4.75-2.35-7.9,4.83-1.51,9.29-3.48,14.39-3.5,4.22-.01,9.27-.02,13.16,1.31l16.22,5.55,10.18,4.36.04,4.78c-1.97-1.33-4.6-3.7-6.22-3.75ZM254.92,166.03l-.47.03h.47s.49-.02.49-.02l.47-.03h-.47s-.49.02-.49.02Z"/>
      <path class="cls-1" d="M229.42,259.49c.42,6.57.36,13.16,3.42,19.4l-13.12,1.4-8.31.89c-.09.84-.12,1.62.23,1.66l1.43.17,21.25-1.9c1.02-4.08-2.28-7.53-2.92-16.59l-.36-5.14c-.55-.06-1.09-.12-1.64-.19,0,.1.01.2.02.3Z"/>
      <path class="cls-1" d="M250.33,178.3c-2.63-.79-2.58,1.24-3.33,2.73-5.36,10.5-10.28,20.85-13.73,31.62l-1.37-1.54c-.26-.29-.73,1.26-.78,1.66l-2.09,18.71-.4,7.48c-.36,6.85.32,13.34.77,20.24.55.06,1.09.12,1.64.19l-.76-10.86c-1.77-25.25,8.06-48.35,20.05-70.21Z"/>
      <path class="cls-1" d="M153.5,217.54c-7.31-1.03-12.07-6.09-18.89-6.43l.39-2.08c.43-2.27,11.35,4.88,20.91,6.43l10.25,1.67c3.94.64,9.38-.25,13.36-1.69,8.08-2.93,14.87-13.51,19.2-10.39l4.74,3.42c-2.93,1.92-6.78-4.12-9.11-1.16-.31.4.63,2.29.05,1.96l-1.5-.86c-3.71,3.09-7.82,7.35-12.87,8.75-4.16,1.15-10.15,2.71-14.15,2.15l-12.39-1.76Z"/>
    </g>
  </g>
</svg>